<svg width="24" height="25" viewBox="0 0 24 25" fill="none" xmlns="http://www.w3.org/2000/svg">
<path d="M23.3553 10.4399C23.3548 10.4394 23.3542 10.4388 23.3537 10.4383L13.5626 0.647527C13.1452 0.230004 12.5904 0 12.0001 0C11.4099 0 10.8551 0.229821 10.4376 0.647344L0.65158 10.4331C0.648284 10.4364 0.644988 10.4399 0.641692 10.4432C-0.215329 11.3052 -0.213864 12.7037 0.645903 13.5635C1.0387 13.9564 1.5575 14.1841 2.11218 14.2079C2.1347 14.2101 2.15741 14.2112 2.1803 14.2112H2.57054V21.4166C2.57054 22.8424 3.73063 24.0024 5.1568 24.0024H8.98739C9.37561 24.0024 9.69059 23.6877 9.69059 23.2993V17.6502C9.69059 16.9996 10.2198 16.4704 10.8705 16.4704H13.1298C13.7805 16.4704 14.3097 16.9996 14.3097 17.6502V23.2993C14.3097 23.6877 14.6245 24.0024 15.0129 24.0024H18.8435C20.2697 24.0024 21.4298 22.8424 21.4298 21.4166V14.2112H21.7916C22.3816 14.2112 22.9365 13.9813 23.3542 13.5638C24.2149 12.7026 24.2153 11.3017 23.3553 10.4399V10.4399Z" fill="#7950EC"/>
</svg>
