<svg width="25" height="26" viewBox="0 0 25 26" fill="none" xmlns="http://www.w3.org/2000/svg">
<path d="M21.5475 13.7815C21.5946 13.3891 21.626 12.981 21.626 12.5572C21.626 12.1334 21.5946 11.7253 21.5318 11.3329L24.1845 9.26093C24.42 9.07257 24.4827 8.72725 24.3415 8.46041L21.83 4.11248C21.6731 3.82994 21.3435 3.73576 21.0609 3.82994L17.9373 5.08566C17.2781 4.58337 16.5874 4.17527 15.8183 3.86134L15.3474 0.53368C15.3003 0.219751 15.0335 0 14.7195 0H9.69666C9.38273 0 9.13158 0.219751 9.08449 0.53368L8.6136 3.86134C7.84447 4.17527 7.13813 4.59907 6.49457 5.08566L3.37097 3.82994C3.08843 3.72007 2.75881 3.82994 2.60184 4.11248L0.0904045 8.46041C-0.0665604 8.74294 -0.00377424 9.07257 0.24737 9.26093L2.90008 11.3329C2.83729 11.7253 2.7902 12.1491 2.7902 12.5572C2.7902 12.9653 2.82159 13.3891 2.88438 13.7815L0.231673 15.8535C-0.00377461 16.0418 -0.0665604 16.3871 0.074708 16.654L2.58615 21.0019C2.74311 21.2844 3.07274 21.3786 3.35527 21.2844L6.47888 20.0287C7.13813 20.531 7.82877 20.9391 8.5979 21.253L9.0688 24.5807C9.13158 24.8946 9.38273 25.1144 9.69666 25.1144H14.7195C15.0335 25.1144 15.3003 24.8946 15.3317 24.5807L15.8026 21.253C16.5717 20.9391 17.2781 20.5153 17.9216 20.0287L21.0452 21.2844C21.3278 21.3943 21.6574 21.2844 21.8143 21.0019L24.3258 16.654C24.4827 16.3714 24.42 16.0418 24.1688 15.8535L21.5475 13.7815ZM12.2081 17.2661C9.61817 17.2661 7.49915 15.1471 7.49915 12.5572C7.49915 9.96727 9.61817 7.84824 12.2081 7.84824C14.798 7.84824 16.917 9.96727 16.917 12.5572C16.917 15.1471 14.798 17.2661 12.2081 17.2661Z" fill="#D0D1D5"/>
</svg>
