<svg width="28" height="28" viewBox="0 0 28 28" fill="none" xmlns="http://www.w3.org/2000/svg">
<path d="M13.9867 0.666504C6.62665 0.666504 0.65332 6.63984 0.65332 13.9998C0.65332 21.3598 6.62665 27.3332 13.9867 27.3332C21.3467 27.3332 27.32 21.3598 27.32 13.9998C27.32 6.63984 21.3467 0.666504 13.9867 0.666504V0.666504ZM18.8 9.11984C20.2267 9.11984 21.3733 10.2665 21.3733 11.6932C21.3733 13.1198 20.2267 14.2665 18.8 14.2665C17.3733 14.2665 16.2267 13.1198 16.2267 11.6932C16.2133 10.2665 17.3733 9.11984 18.8 9.11984V9.11984ZM10.8 7.01317C12.5333 7.01317 13.9467 8.4265 13.9467 10.1598C13.9467 11.8932 12.5333 13.3065 10.8 13.3065C9.06665 13.3065 7.65332 11.8932 7.65332 10.1598C7.65332 8.41317 9.05332 7.01317 10.8 7.01317ZM10.8 19.1865V24.1865C7.59999 23.1865 5.06665 20.7198 3.94665 17.5732C5.34665 16.0798 8.83999 15.3198 10.8 15.3198C11.5067 15.3198 12.4 15.4265 13.3333 15.6132C11.1467 16.7732 10.8 18.3065 10.8 19.1865ZM13.9867 24.6665C13.6267 24.6665 13.28 24.6532 12.9333 24.6132V19.1865C12.9333 17.2932 16.8533 16.3465 18.8 16.3465C20.2267 16.3465 22.6933 16.8665 23.92 17.8798C22.36 21.8398 18.5067 24.6665 13.9867 24.6665V24.6665Z" fill="#7950EC"/>
</svg>
