<svg width="296" height="96" viewBox="0 0 296 96" fill="none" xmlns="http://www.w3.org/2000/svg">
<path d="M131.981 76.4018C129.506 76.4018 127.271 76.0735 125.275 75.4168C123.28 74.7853 121.562 73.8634 120.123 72.651C118.658 71.4386 117.534 69.999 116.751 68.3319C115.993 66.6649 115.614 64.8211 115.614 62.8005C115.614 61.1082 115.879 59.517 116.41 58.0267C116.965 56.5113 117.736 55.1979 118.721 54.0865C119.706 52.9752 120.855 52.1164 122.169 51.5102C123.482 50.8788 124.871 50.5631 126.336 50.5631C128.155 50.5631 129.683 51.0177 130.92 51.927C132.158 52.8363 132.928 54.0865 133.232 55.6778C130.529 55.6778 128.382 56.3976 126.791 57.8373C126.033 58.5193 125.439 59.3528 125.01 60.3378C124.606 61.3229 124.404 62.409 124.404 63.5961C124.404 65.8693 125.061 67.6752 126.374 69.0139C127.713 70.3273 129.506 70.984 131.754 70.984C133.093 70.984 134.343 70.7441 135.505 70.2642C136.667 69.759 137.677 69.077 138.536 68.2183C139.394 67.3595 140.051 66.3366 140.506 65.1495C140.986 63.9371 141.226 62.6489 141.226 61.285C141.226 58.7592 140.367 56.1324 138.649 53.4046C137.967 52.3437 137.21 51.3082 136.376 50.2979C135.568 49.2623 134.431 47.8984 132.966 46.2061C131.653 44.6906 130.554 43.3772 129.67 42.2659C128.786 41.1545 127.991 40.0179 127.283 38.8561C125.566 36.0525 124.707 33.2994 124.707 30.5968C124.707 28.5761 125.136 26.7071 125.995 24.9895C126.854 23.2467 128.079 21.7313 129.67 20.4431C131.261 19.155 133.118 18.1573 135.24 17.4501C137.361 16.7429 139.647 16.3892 142.097 16.3892C146.265 16.3892 149.611 17.3743 152.137 19.3444C153.349 20.3042 154.271 21.4534 154.903 22.7921C155.559 24.1308 155.888 25.621 155.888 27.2627C155.888 29.4096 155.345 31.1651 154.259 32.529C153.753 33.1857 153.122 33.6908 152.364 34.0445C151.632 34.3981 150.849 34.5749 150.015 34.5749C148.07 34.5749 146.492 33.7666 145.279 32.1501C146.265 31.4429 147.035 30.5084 147.591 29.3465C148.172 28.1594 148.462 26.8965 148.462 25.5578C148.462 23.8908 147.969 22.5774 146.984 21.6176C145.999 20.6326 144.648 20.14 142.931 20.14C141.895 20.14 140.935 20.3295 140.051 20.7083C139.192 21.0872 138.46 21.6302 137.854 22.3375C137.222 23.0447 136.73 23.8782 136.376 24.838C136.048 25.7978 135.884 26.846 135.884 27.9826C135.884 29.5991 136.262 31.1524 137.02 32.6426C137.778 34.1329 138.864 35.6862 140.278 37.3027C141.541 38.7929 142.905 40.2705 144.37 41.7355C147.78 45.2716 150.192 48.7192 151.607 52.0785C152.44 54.0739 152.857 56.2713 152.857 58.6708C152.857 61.1966 152.339 63.5456 151.303 65.7178C150.268 67.8647 148.79 69.7337 146.871 71.325C144.951 72.9415 142.716 74.1917 140.165 75.0758C137.614 75.9598 134.886 76.4018 131.981 76.4018ZM164.943 75.4546C162.467 75.4546 160.51 74.7222 159.07 73.2572C157.454 71.6407 156.646 69.2791 156.646 66.1724C156.646 64.7074 156.848 63.0152 157.252 61.0956L161.912 39.3107H159.335L159.98 36.204H162.518L164.867 25.4821L176.347 23.9287L173.695 36.204H178.355L177.748 39.3107H173.088L168.125 62.5732C167.923 63.2299 167.822 64.0634 167.822 65.0737C167.822 66.1345 168.062 66.8796 168.542 67.309C169.047 67.7384 169.855 67.9531 170.967 67.9531C171.724 67.9531 172.457 67.7889 173.164 67.4605C173.897 67.1069 174.566 66.627 175.172 66.0208C176.41 64.7832 177.344 63.1415 177.976 61.0956H181.234C179.845 65.0105 178.102 68.1299 176.006 70.4536C174.238 72.3479 172.242 73.7119 170.02 74.5454C168.403 75.1515 166.711 75.4546 164.943 75.4546ZM187.334 75.4546C184.379 75.4546 181.992 74.5327 180.173 72.6889C178.051 70.5167 176.991 67.2837 176.991 62.9899C176.991 61.1713 177.18 59.2518 177.559 57.2311C177.913 55.2105 178.443 53.2151 179.15 51.245C180.767 46.7997 182.977 43.213 185.78 40.4852C189.013 37.3785 192.739 35.8251 196.957 35.8251C199.053 35.8251 200.619 36.1914 201.655 36.9238C202.716 37.6311 203.246 38.5782 203.246 39.7654V40.3337L204.08 36.204H215.256L209.687 62.5732C209.46 63.3309 209.346 64.1644 209.346 65.0737C209.346 67.2964 210.407 68.4077 212.528 68.4077C213.943 68.4077 215.231 67.6879 216.393 66.2482C217.378 65.0358 218.186 63.3183 218.818 61.0956H222.076C220.687 65.0358 219.007 68.1551 217.037 70.4536C215.37 72.3479 213.488 73.7119 211.392 74.5454C209.851 75.1515 208.222 75.4546 206.504 75.4546C204.307 75.4546 202.552 74.8611 201.238 73.674C199.95 72.4616 199.167 70.6809 198.889 68.3319C197.424 70.4031 195.884 72.0196 194.267 73.1814C192.196 74.6969 189.885 75.4546 187.334 75.4546ZM192.373 67.9531C192.954 67.9531 193.56 67.8015 194.191 67.4984C194.848 67.1953 195.479 66.766 196.086 66.2103C197.449 64.8969 198.359 63.192 198.813 61.0956L202.526 43.5919C202.526 43.3393 202.463 43.0489 202.337 42.7205C202.236 42.3669 202.084 42.0386 201.882 41.7355C201.276 41.003 200.43 40.6367 199.344 40.6367C198.308 40.6367 197.298 40.9777 196.313 41.6597C195.353 42.3416 194.444 43.2888 193.585 44.5012C192.07 46.6986 190.819 49.5654 189.834 53.1015C189.38 54.6675 189.039 56.2208 188.811 57.7615C188.584 59.277 188.47 60.6536 188.47 61.8912C188.47 64.4675 188.95 66.2103 189.91 67.1196C190.238 67.4732 190.605 67.7005 191.009 67.8015C191.413 67.9026 191.868 67.9531 192.373 67.9531ZM229.956 75.4546C226.142 75.4546 223.2 74.4948 221.129 72.5752C218.931 70.5294 217.833 67.3848 217.833 63.1415C217.833 61.5502 217.997 59.7822 218.325 57.8373C218.628 55.8672 219.108 53.9097 219.765 51.9649C221.306 47.2417 223.49 43.4782 226.319 40.6746C229.805 37.2396 233.934 35.522 238.708 35.522C241.815 35.522 244.113 36.2671 245.604 37.7574C246.765 38.9445 247.346 40.5736 247.346 42.6447C247.346 44.4633 246.942 45.8777 246.134 46.8881C245.376 47.8226 244.404 48.2899 243.217 48.2899C242.358 48.2899 241.449 47.9868 240.489 47.3806C241.12 45.7388 241.436 44.2107 241.436 42.7963C241.436 41.8112 241.247 41.0409 240.868 40.4852C240.514 39.9043 239.984 39.6138 239.276 39.6138C237.761 39.6138 236.182 40.9525 234.541 43.6298C233.05 46.004 231.813 49.0223 230.828 52.6847C229.817 56.2713 229.312 59.517 229.312 62.4216C229.312 64.9474 229.792 66.6902 230.752 67.65C231.585 68.5087 232.975 68.9381 234.919 68.9381C237.723 68.9381 240.287 68.1804 242.61 66.6649C243.596 66.0335 244.543 65.2884 245.452 64.4296C246.361 63.5456 247.422 62.4342 248.634 61.0956H251.287C248.837 65.2379 246.02 68.534 242.838 70.984C238.923 73.9644 234.629 75.4546 229.956 75.4546ZM277.807 75.4546C274.599 75.4546 272.162 74.6969 270.495 73.1814C268.853 71.666 268.032 69.4812 268.032 66.627C268.032 65.3894 268.184 64.0381 268.487 62.5732L269.131 59.5422C269.333 58.7592 269.434 57.8121 269.434 56.7007C269.434 55.4883 269.22 54.5664 268.79 53.935C268.361 53.2783 267.641 52.9499 266.631 52.9499C265.797 52.9499 264.926 53.1899 264.016 53.6698C263.107 54.1497 262.072 54.8695 260.91 55.8293L256.856 75H245.679L256.932 22.2238L268.411 20.6704L262.615 47.9868L277.58 36.204H285.271L269.737 47.0017C270.621 46.7744 271.48 46.6607 272.314 46.6607C273.728 46.6607 274.966 46.9007 276.027 47.3806C277.113 47.8352 278.022 48.4919 278.754 49.3507C279.436 50.1589 279.954 51.1187 280.308 52.2301C280.661 53.3162 280.838 54.4907 280.838 55.7535C280.838 56.9407 280.737 57.9257 280.535 58.7087L279.664 62.5732C279.411 63.4067 279.285 64.2402 279.285 65.0737C279.285 65.9577 279.512 66.6649 279.967 67.1953C280.421 67.7005 281.204 67.9531 282.316 67.9531C283.856 67.9531 285.157 67.3216 286.218 66.0587C287.026 65.0989 287.898 63.4446 288.832 61.0956H292.091C290.196 66.8291 287.708 70.8451 284.627 73.1436C282.606 74.6843 280.333 75.4546 277.807 75.4546Z" fill="white"/>
<circle cx="29.3092" cy="57.9669" r="29.3092" fill="#32C9E5"/>
<circle cx="48.8488" cy="29.3092" r="29.3092" fill="white"/>
<circle cx="69.6908" cy="57.9669" r="29.3092" fill="#7950EC"/>
</svg>
