<svg width="281" height="107" viewBox="0 0 281 107" fill="none" xmlns="http://www.w3.org/2000/svg">
<path opacity="0.7" d="M8.02 1.468C8.9 1.468 9.714 1.59267 10.462 1.842C11.21 2.09133 11.87 2.414 12.442 2.81C13.014 3.206 13.4613 3.63133 13.784 4.086L12.244 5.692C11.6573 5.13467 11.012 4.68 10.308 4.328C9.604 3.96133 8.84133 3.778 8.02 3.778C6.97867 3.778 6.03267 4.02 5.182 4.504C4.346 4.988 3.686 5.648 3.202 6.484C2.718 7.30533 2.476 8.244 2.476 9.3C2.476 10.3413 2.73267 11.2873 3.246 12.138C3.75933 12.9887 4.44133 13.6633 5.292 14.162C6.15733 14.6607 7.096 14.91 8.108 14.91C8.84133 14.91 9.53067 14.7707 10.176 14.492C10.8213 14.1987 11.342 13.8027 11.738 13.304C12.1487 12.8053 12.354 12.2333 12.354 11.588C12.354 11.5147 12.354 11.4707 12.354 11.456H7.976V9.102H14.796C14.8253 9.322 14.8473 9.542 14.862 9.762C14.8913 9.982 14.906 10.202 14.906 10.422C14.906 11.2287 14.7813 12.0207 14.532 12.798C14.2973 13.5753 13.9233 14.25 13.41 14.822C12.8233 15.5553 12.0607 16.142 11.122 16.582C10.198 17.0073 9.17133 17.22 8.042 17.22C6.92733 17.22 5.886 17.022 4.918 16.626C3.95 16.2153 3.09933 15.6507 2.366 14.932C1.63267 14.2133 1.06067 13.3773 0.65 12.424C0.254 11.456 0.056 10.4147 0.056 9.3C0.056 8.18533 0.254 7.15867 0.65 6.22C1.06067 5.26667 1.62533 4.438 2.344 3.734C3.07733 3.01533 3.928 2.458 4.896 2.062C5.864 1.666 6.90533 1.468 8.02 1.468ZM27.3498 15.482H27.3278C26.8584 15.9367 26.2131 16.34 25.3918 16.692C24.5704 17.044 23.7124 17.22 22.8178 17.22C21.6151 17.22 20.5518 16.9707 19.6278 16.472C18.7184 15.9587 18.0071 15.262 17.4938 14.382C16.9804 13.4873 16.7238 12.4753 16.7238 11.346C16.7238 10.0553 16.9951 8.95533 17.5378 8.046C18.0804 7.122 18.7991 6.418 19.6938 5.934C20.5884 5.43533 21.5638 5.186 22.6198 5.186C23.5878 5.186 24.4678 5.428 25.2598 5.912C26.0518 6.38133 26.6824 7.034 27.1517 7.87C27.6211 8.706 27.8558 9.68133 27.8558 10.796L27.8338 11.764H18.9898C19.1218 12.8053 19.5471 13.634 20.2658 14.25C20.9991 14.8513 21.9231 15.152 23.0378 15.152C23.8444 15.152 24.4971 15.0053 24.9958 14.712C25.4944 14.404 25.9051 14.1107 26.2278 13.832L27.3498 15.482ZM22.6198 7.276C21.7544 7.276 20.9991 7.48133 20.3538 7.892C19.7084 8.288 19.2831 8.97733 19.0777 9.96H25.5458V9.806C25.5018 9.30733 25.3331 8.86733 25.0398 8.486C24.7611 8.10467 24.4091 7.81133 23.9838 7.606C23.5584 7.386 23.1038 7.276 22.6198 7.276ZM34.0144 17H31.7484V7.65H29.3504V5.45H31.7484V2.502H34.0144V5.45H36.6984V7.65H34.0144V17ZM46.8638 22.06L48.7558 17.726L48.8218 17.572L43.4538 5.45H46.0938L49.7018 13.942C49.7458 14.03 49.7898 14.14 49.8338 14.272C49.8778 14.404 49.9291 14.5507 49.9878 14.712C50.0464 14.5507 50.0978 14.3967 50.1418 14.25C50.2004 14.0887 50.2591 13.9347 50.3178 13.788L53.3318 5.45H56.0158L51.2638 17L49.3058 22.06H46.8638ZM68.5621 11.214C68.5621 12.3873 68.2981 13.4287 67.7701 14.338C67.2568 15.2327 66.5528 15.9367 65.6581 16.45C64.7781 16.9633 63.7881 17.22 62.6881 17.22C61.5881 17.22 60.5908 16.9633 59.6961 16.45C58.8014 15.9367 58.0901 15.2327 57.5621 14.338C57.0488 13.4287 56.7921 12.3873 56.7921 11.214C56.7921 10.0407 57.0488 9.00667 57.5621 8.112C58.0901 7.20267 58.8014 6.49133 59.6961 5.978C60.5908 5.46467 61.5881 5.208 62.6881 5.208C63.7881 5.208 64.7781 5.46467 65.6581 5.978C66.5528 6.49133 67.2568 7.20267 67.7701 8.112C68.2981 9.00667 68.5621 10.0407 68.5621 11.214ZM66.2521 11.214C66.2668 10.4367 66.1128 9.75467 65.7901 9.168C65.4821 8.56667 65.0568 8.10467 64.5141 7.782C63.9714 7.44467 63.3628 7.276 62.6881 7.276C62.0134 7.276 61.3974 7.44467 60.8401 7.782C60.2974 8.10467 59.8648 8.56667 59.5421 9.168C59.2341 9.75467 59.0874 10.4367 59.1021 11.214C59.0874 11.9767 59.2341 12.6587 59.5421 13.26C59.8648 13.8467 60.2974 14.3087 60.8401 14.646C61.3974 14.9833 62.0134 15.152 62.6881 15.152C63.3628 15.152 63.9714 14.9833 64.5141 14.646C65.0568 14.3087 65.4821 13.8467 65.7901 13.26C66.1128 12.6587 66.2668 11.9767 66.2521 11.214ZM78.9073 12.402V5.45H81.1733V17H78.9073V15.152C78.5699 15.6947 78.0713 16.1787 77.4113 16.604C76.7659 17.0147 75.9886 17.22 75.0793 17.22C73.8766 17.22 72.9013 16.8093 72.1533 15.988C71.4053 15.1667 71.0313 14.03 71.0313 12.578V5.45H73.2973V11.962C73.2973 12.5487 73.3853 13.0913 73.5613 13.59C73.7519 14.0887 74.0453 14.492 74.4413 14.8C74.8519 15.0933 75.3726 15.24 76.0033 15.24C76.7953 15.24 77.4773 14.9907 78.0493 14.492C78.6213 13.9933 78.9073 13.2967 78.9073 12.402ZM90.8196 7.892C90.6729 7.81867 90.4896 7.76 90.2696 7.716C90.0642 7.65733 89.8442 7.628 89.6096 7.628C89.1402 7.628 88.6782 7.75267 88.2236 8.002C87.7689 8.23667 87.3876 8.58133 87.0796 9.036C86.7862 9.476 86.6396 10.004 86.6396 10.62V17H84.3516V5.45H86.6396V7.628C86.9622 6.924 87.4462 6.34467 88.0916 5.89C88.7516 5.43533 89.4409 5.208 90.1596 5.208C90.7022 5.208 91.1202 5.28133 91.4136 5.428L90.8196 7.892ZM114.923 5.45L111.029 17H109.467L106.519 10.29L103.769 17H102.229L98.2906 5.45L100.579 5.428L103.175 13.392L105.947 7.276H107.311L110.061 13.304L112.635 5.45H114.923ZM127.73 11.214C127.73 12.3873 127.466 13.4287 126.938 14.338C126.425 15.2327 125.721 15.9367 124.826 16.45C123.946 16.9633 122.956 17.22 121.856 17.22C120.756 17.22 119.759 16.9633 118.864 16.45C117.969 15.9367 117.258 15.2327 116.73 14.338C116.217 13.4287 115.96 12.3873 115.96 11.214C115.96 10.0407 116.217 9.00667 116.73 8.112C117.258 7.20267 117.969 6.49133 118.864 5.978C119.759 5.46467 120.756 5.208 121.856 5.208C122.956 5.208 123.946 5.46467 124.826 5.978C125.721 6.49133 126.425 7.20267 126.938 8.112C127.466 9.00667 127.73 10.0407 127.73 11.214ZM125.42 11.214C125.435 10.4367 125.281 9.75467 124.958 9.168C124.65 8.56667 124.225 8.10467 123.682 7.782C123.139 7.44467 122.531 7.276 121.856 7.276C121.181 7.276 120.565 7.44467 120.008 7.782C119.465 8.10467 119.033 8.56667 118.71 9.168C118.402 9.75467 118.255 10.4367 118.27 11.214C118.255 11.9767 118.402 12.6587 118.71 13.26C119.033 13.8467 119.465 14.3087 120.008 14.646C120.565 14.9833 121.181 15.152 121.856 15.152C122.531 15.152 123.139 14.9833 123.682 14.646C124.225 14.3087 124.65 13.8467 124.958 13.26C125.281 12.6587 125.435 11.9767 125.42 11.214ZM136.667 7.892C136.521 7.81867 136.337 7.76 136.117 7.716C135.912 7.65733 135.692 7.628 135.457 7.628C134.988 7.628 134.526 7.75267 134.071 8.002C133.617 8.23667 133.235 8.58133 132.927 9.036C132.634 9.476 132.487 10.004 132.487 10.62V17H130.199V5.45H132.487V7.628C132.81 6.924 133.294 6.34467 133.939 5.89C134.599 5.43533 135.289 5.208 136.007 5.208C136.55 5.208 136.968 5.28133 137.261 5.428L136.667 7.892ZM139.072 17V0.72H141.338V10.62L146.552 5.45H149.61L144.198 10.532L149.764 17H146.86L142.592 12.028L141.338 13.216V17H139.072ZM168.566 0.72V17H166.3V15.372C165.963 15.8267 165.464 16.252 164.804 16.648C164.144 17.0293 163.396 17.22 162.56 17.22C161.519 17.22 160.58 16.9633 159.744 16.45C158.908 15.9367 158.248 15.2253 157.764 14.316C157.28 13.4067 157.038 12.3727 157.038 11.214C157.038 10.0407 157.28 9.00667 157.764 8.112C158.248 7.20267 158.901 6.49133 159.722 5.978C160.544 5.46467 161.468 5.208 162.494 5.208C163.316 5.208 164.056 5.37667 164.716 5.714C165.391 6.05133 165.919 6.44733 166.3 6.902V0.72H168.566ZM162.868 15.262C163.572 15.262 164.188 15.086 164.716 14.734C165.244 14.382 165.655 13.898 165.948 13.282C166.242 12.666 166.388 11.9767 166.388 11.214C166.388 10.4367 166.242 9.74733 165.948 9.146C165.655 8.53 165.244 8.046 164.716 7.694C164.188 7.342 163.572 7.166 162.868 7.166C162.179 7.166 161.57 7.342 161.042 7.694C160.514 8.046 160.096 8.53 159.788 9.146C159.495 9.74733 159.348 10.4367 159.348 11.214C159.348 11.9767 159.495 12.666 159.788 13.282C160.096 13.898 160.514 14.382 161.042 14.734C161.57 15.086 162.179 15.262 162.868 15.262ZM182.752 11.214C182.752 12.3873 182.488 13.4287 181.96 14.338C181.446 15.2327 180.742 15.9367 179.848 16.45C178.968 16.9633 177.978 17.22 176.878 17.22C175.778 17.22 174.78 16.9633 173.886 16.45C172.991 15.9367 172.28 15.2327 171.752 14.338C171.238 13.4287 170.982 12.3873 170.982 11.214C170.982 10.0407 171.238 9.00667 171.752 8.112C172.28 7.20267 172.991 6.49133 173.886 5.978C174.78 5.46467 175.778 5.208 176.878 5.208C177.978 5.208 178.968 5.46467 179.848 5.978C180.742 6.49133 181.446 7.20267 181.96 8.112C182.488 9.00667 182.752 10.0407 182.752 11.214ZM180.442 11.214C180.456 10.4367 180.302 9.75467 179.98 9.168C179.672 8.56667 179.246 8.10467 178.704 7.782C178.161 7.44467 177.552 7.276 176.878 7.276C176.203 7.276 175.587 7.44467 175.03 7.782C174.487 8.10467 174.054 8.56667 173.732 9.168C173.424 9.75467 173.277 10.4367 173.292 11.214C173.277 11.9767 173.424 12.6587 173.732 13.26C174.054 13.8467 174.487 14.3087 175.03 14.646C175.587 14.9833 176.203 15.152 176.878 15.152C177.552 15.152 178.161 14.9833 178.704 14.646C179.246 14.3087 179.672 13.8467 179.98 13.26C180.302 12.6587 180.456 11.9767 180.442 11.214ZM191.271 5.208C192.312 5.208 193.119 5.42067 193.691 5.846C194.263 6.27133 194.659 6.84333 194.879 7.562C195.113 8.28067 195.231 9.08 195.231 9.96V17H192.965V10.114C192.965 9.55667 192.891 9.058 192.745 8.618C192.598 8.178 192.349 7.83333 191.997 7.584C191.645 7.33467 191.153 7.232 190.523 7.276C189.936 7.276 189.415 7.40067 188.961 7.65C188.506 7.89933 188.147 8.22933 187.883 8.64C187.619 9.05067 187.487 9.50533 187.487 10.004V17H185.221V5.45H187.487V7.276C187.839 6.73333 188.352 6.25667 189.027 5.846C189.701 5.42067 190.449 5.208 191.271 5.208ZM208.227 15.482H208.205C207.735 15.9367 207.09 16.34 206.269 16.692C205.447 17.044 204.589 17.22 203.695 17.22C202.492 17.22 201.429 16.9707 200.505 16.472C199.595 15.9587 198.884 15.262 198.371 14.382C197.857 13.4873 197.601 12.4753 197.601 11.346C197.601 10.0553 197.872 8.95533 198.415 8.046C198.957 7.122 199.676 6.418 200.571 5.934C201.465 5.43533 202.441 5.186 203.497 5.186C204.465 5.186 205.345 5.428 206.137 5.912C206.929 6.38133 207.559 7.034 208.029 7.87C208.498 8.706 208.733 9.68133 208.733 10.796L208.711 11.764H199.867C199.999 12.8053 200.424 13.634 201.143 14.25C201.876 14.8513 202.8 15.152 203.915 15.152C204.721 15.152 205.374 15.0053 205.873 14.712C206.371 14.404 206.782 14.1107 207.105 13.832L208.227 15.482ZM203.497 7.276C202.631 7.276 201.876 7.48133 201.231 7.892C200.585 8.288 200.16 8.97733 199.955 9.96H206.423V9.806C206.379 9.30733 206.21 8.86733 205.917 8.486C205.638 8.10467 205.286 7.81133 204.861 7.606C204.435 7.386 203.981 7.276 203.497 7.276ZM212.119 17.242C211.606 17.242 211.225 17.0953 210.975 16.802C210.726 16.494 210.601 16.0907 210.601 15.592C210.601 15.1667 210.726 14.7853 210.975 14.448C211.225 14.1107 211.606 13.942 212.119 13.942C212.633 13.942 213.014 14.096 213.263 14.404C213.513 14.6973 213.637 15.0933 213.637 15.592C213.637 16.0027 213.513 16.384 213.263 16.736C213.014 17.0733 212.633 17.242 212.119 17.242ZM223.511 12.358C224.113 13.2233 224.736 13.898 225.381 14.382C226.041 14.8513 226.892 15.086 227.933 15.086C228.432 15.086 228.909 15.0053 229.363 14.844C229.818 14.6827 230.192 14.448 230.485 14.14C230.779 13.832 230.925 13.4653 230.925 13.04C230.925 12.3067 230.61 11.7347 229.979 11.324C229.363 10.9133 228.491 10.598 227.361 10.378C225.924 10.0847 224.78 9.57867 223.929 8.86C223.079 8.12667 222.653 7.07067 222.653 5.692C222.653 4.812 222.895 4.04933 223.379 3.404C223.878 2.75867 224.531 2.26 225.337 1.908C226.144 1.556 227.017 1.38 227.955 1.38C229.173 1.38 230.221 1.61467 231.101 2.084C231.981 2.55333 232.671 3.22067 233.169 4.086L231.497 5.736C231.101 5.076 230.603 4.54067 230.001 4.13C229.4 3.71933 228.696 3.514 227.889 3.514C227.083 3.514 226.401 3.70467 225.843 4.086C225.301 4.45267 225.029 4.966 225.029 5.626C225.029 6.374 225.315 6.924 225.887 7.276C226.474 7.61333 227.244 7.88467 228.197 8.09C229.063 8.266 229.884 8.53733 230.661 8.904C231.439 9.27067 232.069 9.74733 232.553 10.334C233.052 10.906 233.301 11.6027 233.301 12.424C233.301 13.8907 232.803 15.0567 231.805 15.922C230.808 16.7873 229.437 17.22 227.691 17.22C226.503 17.22 225.418 16.9853 224.435 16.516C223.467 16.0467 222.617 15.284 221.883 14.228L223.511 12.358ZM239.792 17H237.526V7.65H235.128V5.45H237.526V2.502H239.792V5.45H242.476V7.65H239.792V17ZM255.19 5.45V17H252.902V15.218C252.55 15.702 252.029 16.1567 251.34 16.582C250.65 17.0073 249.851 17.22 248.942 17.22C247.974 17.22 247.086 16.9633 246.28 16.45C245.488 15.9367 244.857 15.2253 244.388 14.316C243.918 13.4067 243.684 12.3653 243.684 11.192C243.684 10.0187 243.926 8.98467 244.41 8.09C244.894 7.18067 245.561 6.47667 246.412 5.978C247.262 5.46467 248.23 5.208 249.316 5.208C250.122 5.208 250.826 5.384 251.428 5.736C252.044 6.088 252.535 6.49867 252.902 6.968V5.45H255.19ZM249.47 15.13C250.174 15.13 250.79 14.9613 251.318 14.624C251.846 14.272 252.256 13.8027 252.55 13.216C252.843 12.6147 252.99 11.94 252.99 11.192C252.99 10.4587 252.843 9.79867 252.55 9.212C252.256 8.62533 251.846 8.16333 251.318 7.826C250.79 7.474 250.174 7.298 249.47 7.298C248.795 7.298 248.194 7.46667 247.666 7.804C247.138 8.14133 246.727 8.60333 246.434 9.19C246.14 9.77667 245.994 10.444 245.994 11.192C245.994 11.94 246.14 12.6147 246.434 13.216C246.727 13.8027 247.138 14.272 247.666 14.624C248.194 14.9613 248.795 15.13 249.47 15.13ZM259.806 11.214C259.806 11.9767 259.974 12.6587 260.312 13.26C260.664 13.8467 261.118 14.316 261.676 14.668C262.248 15.0053 262.856 15.174 263.502 15.174C264.235 15.174 264.873 14.9833 265.416 14.602C265.958 14.2207 266.398 13.8247 266.736 13.414L267.99 14.954C267.711 15.35 267.33 15.724 266.846 16.076C266.362 16.4133 265.812 16.692 265.196 16.912C264.58 17.1173 263.934 17.22 263.26 17.22C262.204 17.22 261.25 16.956 260.4 16.428C259.549 15.9 258.874 15.1813 258.376 14.272C257.892 13.3627 257.65 12.3433 257.65 11.214C257.65 10.07 257.892 9.05067 258.376 8.156C258.874 7.24667 259.549 6.528 260.4 6C261.25 5.472 262.204 5.208 263.26 5.208C264.33 5.208 265.284 5.428 266.12 5.868C266.956 6.29333 267.579 6.85067 267.99 7.54L266.736 9.08C266.398 8.58133 265.914 8.156 265.284 7.804C264.668 7.43733 264.066 7.254 263.48 7.254C262.79 7.254 262.167 7.43 261.61 7.782C261.052 8.11933 260.612 8.58867 260.29 9.19C259.967 9.77667 259.806 10.4513 259.806 11.214ZM270.127 17V0.72H272.393V10.62L277.607 5.45H280.665L275.253 10.532L280.819 17H277.915L273.647 12.028L272.393 13.216V17H270.127ZM6.634 33.208C7.67533 33.208 8.482 33.4207 9.054 33.846C9.626 34.2713 10.022 34.8433 10.242 35.562C10.4767 36.2807 10.594 37.08 10.594 37.96V45H8.328V38.114C8.328 37.5567 8.25467 37.058 8.108 36.618C7.96133 36.178 7.712 35.8333 7.36 35.584C7.008 35.3347 6.51667 35.232 5.886 35.276C5.29933 35.276 4.77867 35.4007 4.324 35.65C3.86933 35.8993 3.51 36.2293 3.246 36.64C2.982 37.0507 2.85 37.5053 2.85 38.004V45H0.584V28.72H2.85V35.276C3.202 34.7333 3.71533 34.2567 4.39 33.846C5.06467 33.4207 5.81267 33.208 6.634 33.208ZM23.59 43.482H23.568C23.0987 43.9367 22.4533 44.34 21.632 44.692C20.8107 45.044 19.9527 45.22 19.058 45.22C17.8553 45.22 16.792 44.9707 15.868 44.472C14.9587 43.9587 14.2473 43.262 13.734 42.382C13.2207 41.4873 12.964 40.4753 12.964 39.346C12.964 38.0553 13.2353 36.9553 13.778 36.046C14.3207 35.122 15.0393 34.418 15.934 33.934C16.8287 33.4353 17.804 33.186 18.86 33.186C19.828 33.186 20.708 33.428 21.5 33.912C22.292 34.3813 22.9227 35.034 23.392 35.87C23.8613 36.706 24.096 37.6813 24.096 38.796L24.074 39.764H15.23C15.362 40.8053 15.7873 41.634 16.506 42.25C17.2393 42.8513 18.1633 43.152 19.278 43.152C20.0847 43.152 20.7373 43.0053 21.236 42.712C21.7347 42.404 22.1453 42.1107 22.468 41.832L23.59 43.482ZM18.86 35.276C17.9947 35.276 17.2393 35.4813 16.594 35.892C15.9487 36.288 15.5233 36.9773 15.318 37.96H21.786V37.806C21.742 37.3073 21.5733 36.8673 21.28 36.486C21.0013 36.1047 20.6493 35.8113 20.224 35.606C19.7987 35.386 19.344 35.276 18.86 35.276ZM26.5586 45V28.72H28.8246V45H26.5586ZM38.0866 33.252C39.1133 33.252 40.0299 33.5087 40.8366 34.022C41.6579 34.5207 42.3033 35.2173 42.7726 36.112C43.2419 37.0067 43.4766 38.0407 43.4766 39.214C43.4766 40.3727 43.2419 41.4067 42.7726 42.316C42.3033 43.2107 41.6653 43.9147 40.8586 44.428C40.0519 44.9413 39.1499 45.198 38.1526 45.198C37.3313 45.198 36.5833 45.022 35.9086 44.67C35.2486 44.318 34.7279 43.9147 34.3466 43.46V49.84H32.0586V33.428H34.3466V35.122C34.6839 34.638 35.1899 34.2053 35.8646 33.824C36.5393 33.4427 37.2799 33.252 38.0866 33.252ZM37.7786 35.342C37.0893 35.342 36.4733 35.5107 35.9306 35.848C35.4026 36.1853 34.9846 36.6473 34.6766 37.234C34.3833 37.806 34.2366 38.466 34.2366 39.214C34.2366 39.9473 34.3833 40.6073 34.6766 41.194C34.9846 41.7807 35.4026 42.25 35.9306 42.602C36.4733 42.9393 37.0893 43.108 37.7786 43.108C38.4679 43.108 39.0766 42.9393 39.6046 42.602C40.1326 42.25 40.5433 41.7807 40.8366 41.194C41.1446 40.6073 41.2986 39.9473 41.2986 39.214C41.2986 38.466 41.1446 37.806 40.8366 37.234C40.5433 36.6473 40.1326 36.1853 39.6046 35.848C39.0766 35.5107 38.4679 35.342 37.7786 35.342ZM52.6035 36.486C52.1928 36.0753 51.7235 35.738 51.1955 35.474C50.6822 35.21 50.2055 35.078 49.7655 35.078C49.4575 35.078 49.1495 35.1147 48.8415 35.188C48.5482 35.2613 48.2988 35.4007 48.0935 35.606C47.8882 35.7967 47.7855 36.0827 47.7855 36.464C47.8002 36.992 48.0348 37.366 48.4895 37.586C48.9588 37.806 49.5382 38.004 50.2275 38.18C50.8288 38.3413 51.4155 38.5467 51.9875 38.796C52.5595 39.0307 53.0288 39.3827 53.3955 39.852C53.7768 40.3067 53.9675 40.952 53.9675 41.788C53.9675 42.5067 53.7622 43.1227 53.3515 43.636C52.9555 44.1493 52.4348 44.5453 51.7895 44.824C51.1588 45.088 50.4915 45.22 49.7875 45.22C48.9515 45.22 48.1228 45.0733 47.3015 44.78C46.4948 44.472 45.8055 43.9513 45.2335 43.218L46.7735 41.898C47.1695 42.3527 47.6168 42.712 48.1155 42.976C48.6288 43.2253 49.2522 43.35 49.9855 43.35C50.2642 43.35 50.5428 43.306 50.8215 43.218C51.1002 43.1153 51.3348 42.9613 51.5255 42.756C51.7308 42.536 51.8335 42.2427 51.8335 41.876C51.8335 41.524 51.7235 41.2527 51.5035 41.062C51.2982 40.8567 51.0195 40.6953 50.6675 40.578C50.3155 40.446 49.9268 40.3287 49.5015 40.226C48.8708 40.05 48.2475 39.8373 47.6315 39.588C47.0302 39.324 46.5242 38.9573 46.1135 38.488C45.7175 38.004 45.5195 37.3513 45.5195 36.53C45.5195 35.8407 45.7102 35.254 46.0915 34.77C46.4875 34.2713 47.0008 33.89 47.6315 33.626C48.2622 33.3473 48.9368 33.208 49.6555 33.208C50.3448 33.208 51.0928 33.3547 51.8995 33.648C52.7062 33.9413 53.3735 34.4107 53.9015 35.056L52.6035 36.486ZM64.5669 50.06L66.4589 45.726L66.5249 45.572L61.1569 33.45H63.7969L67.4049 41.942C67.4489 42.03 67.4929 42.14 67.5369 42.272C67.5809 42.404 67.6322 42.5507 67.6909 42.712C67.7495 42.5507 67.8009 42.3967 67.8449 42.25C67.9035 42.0887 67.9622 41.9347 68.0209 41.788L71.0349 33.45H73.7189L68.9669 45L67.0089 50.06H64.5669ZM86.2652 39.214C86.2652 40.3873 86.0012 41.4287 85.4732 42.338C84.9599 43.2327 84.2559 43.9367 83.3612 44.45C82.4812 44.9633 81.4912 45.22 80.3912 45.22C79.2912 45.22 78.2939 44.9633 77.3992 44.45C76.5046 43.9367 75.7932 43.2327 75.2652 42.338C74.7519 41.4287 74.4952 40.3873 74.4952 39.214C74.4952 38.0407 74.7519 37.0067 75.2652 36.112C75.7932 35.2027 76.5046 34.4913 77.3992 33.978C78.2939 33.4647 79.2912 33.208 80.3912 33.208C81.4912 33.208 82.4812 33.4647 83.3612 33.978C84.2559 34.4913 84.9599 35.2027 85.4732 36.112C86.0012 37.0067 86.2652 38.0407 86.2652 39.214ZM83.9552 39.214C83.9699 38.4367 83.8159 37.7547 83.4932 37.168C83.1852 36.5667 82.7599 36.1047 82.2172 35.782C81.6746 35.4447 81.0659 35.276 80.3912 35.276C79.7166 35.276 79.1006 35.4447 78.5432 35.782C78.0006 36.1047 77.5679 36.5667 77.2452 37.168C76.9372 37.7547 76.7906 38.4367 76.8052 39.214C76.7906 39.9767 76.9372 40.6587 77.2452 41.26C77.5679 41.8467 78.0006 42.3087 78.5432 42.646C79.1006 42.9833 79.7166 43.152 80.3912 43.152C81.0659 43.152 81.6746 42.9833 82.2172 42.646C82.7599 42.3087 83.1852 41.8467 83.4932 41.26C83.8159 40.6587 83.9699 39.9767 83.9552 39.214ZM96.6104 40.402V33.45H98.8764V45H96.6104V43.152C96.2731 43.6947 95.7744 44.1787 95.1144 44.604C94.4691 45.0147 93.6917 45.22 92.7824 45.22C91.5797 45.22 90.6044 44.8093 89.8564 43.988C89.1084 43.1667 88.7344 42.03 88.7344 40.578V33.45H91.0004V39.962C91.0004 40.5487 91.0884 41.0913 91.2644 41.59C91.4551 42.0887 91.7484 42.492 92.1444 42.8C92.5551 43.0933 93.0757 43.24 93.7064 43.24C94.4984 43.24 95.1804 42.9907 95.7524 42.492C96.3244 41.9933 96.6104 41.2967 96.6104 40.402ZM111.917 45H109.651V35.65H107.253V33.45H109.651V30.502H111.917V33.45H114.601V35.65H111.917V45ZM127.623 39.214C127.623 40.3873 127.359 41.4287 126.831 42.338C126.317 43.2327 125.613 43.9367 124.719 44.45C123.839 44.9633 122.849 45.22 121.749 45.22C120.649 45.22 119.651 44.9633 118.757 44.45C117.862 43.9367 117.151 43.2327 116.623 42.338C116.109 41.4287 115.853 40.3873 115.853 39.214C115.853 38.0407 116.109 37.0067 116.623 36.112C117.151 35.2027 117.862 34.4913 118.757 33.978C119.651 33.4647 120.649 33.208 121.749 33.208C122.849 33.208 123.839 33.4647 124.719 33.978C125.613 34.4913 126.317 35.2027 126.831 36.112C127.359 37.0067 127.623 38.0407 127.623 39.214ZM125.313 39.214C125.327 38.4367 125.173 37.7547 124.851 37.168C124.543 36.5667 124.117 36.1047 123.575 35.782C123.032 35.4447 122.423 35.276 121.749 35.276C121.074 35.276 120.458 35.4447 119.901 35.782C119.358 36.1047 118.925 36.5667 118.603 37.168C118.295 37.7547 118.148 38.4367 118.163 39.214C118.148 39.9767 118.295 40.6587 118.603 41.26C118.925 41.8467 119.358 42.3087 119.901 42.646C120.458 42.9833 121.074 43.152 121.749 43.152C122.423 43.152 123.032 42.9833 123.575 42.646C124.117 42.3087 124.543 41.8467 124.851 41.26C125.173 40.6587 125.327 39.9767 125.313 39.214ZM142.132 33.252C143.085 33.252 143.848 33.472 144.42 33.912C144.992 34.3373 145.402 34.924 145.652 35.672C145.857 35.3053 146.158 34.9387 146.554 34.572C146.95 34.1907 147.412 33.8753 147.94 33.626C148.468 33.3767 149.032 33.252 149.634 33.252C150.631 33.252 151.408 33.472 151.966 33.912C152.523 34.3373 152.912 34.9167 153.132 35.65C153.366 36.3687 153.484 37.1753 153.484 38.07V45H151.196V38.202C151.196 37.3513 151.034 36.662 150.712 36.134C150.389 35.606 149.78 35.342 148.886 35.342C148.035 35.342 147.331 35.6133 146.774 36.156C146.231 36.684 145.96 37.3293 145.96 38.092V45H143.672V38.158C143.672 37.3367 143.496 36.662 143.144 36.134C142.792 35.606 142.212 35.342 141.406 35.342C140.848 35.342 140.35 35.4667 139.91 35.716C139.47 35.9653 139.125 36.2953 138.876 36.706C138.626 37.102 138.502 37.5493 138.502 38.048V45H136.214V33.45H138.502V35.298C138.854 34.77 139.345 34.3007 139.976 33.89C140.621 33.4647 141.34 33.252 142.132 33.252ZM167.276 33.45V45H164.988V43.218C164.636 43.702 164.115 44.1567 163.426 44.582C162.736 45.0073 161.937 45.22 161.028 45.22C160.06 45.22 159.172 44.9633 158.366 44.45C157.574 43.9367 156.943 43.2253 156.474 42.316C156.004 41.4067 155.77 40.3653 155.77 39.192C155.77 38.0187 156.012 36.9847 156.496 36.09C156.98 35.1807 157.647 34.4767 158.498 33.978C159.348 33.4647 160.316 33.208 161.402 33.208C162.208 33.208 162.912 33.384 163.514 33.736C164.13 34.088 164.621 34.4987 164.988 34.968V33.45H167.276ZM161.556 43.13C162.26 43.13 162.876 42.9613 163.404 42.624C163.932 42.272 164.342 41.8027 164.636 41.216C164.929 40.6147 165.076 39.94 165.076 39.192C165.076 38.4587 164.929 37.7987 164.636 37.212C164.342 36.6253 163.932 36.1633 163.404 35.826C162.876 35.474 162.26 35.298 161.556 35.298C160.881 35.298 160.28 35.4667 159.752 35.804C159.224 36.1413 158.813 36.6033 158.52 37.19C158.226 37.7767 158.08 38.444 158.08 39.192C158.08 39.94 158.226 40.6147 158.52 41.216C158.813 41.8027 159.224 42.272 159.752 42.624C160.28 42.9613 160.881 43.13 161.556 43.13ZM176.489 33.208C177.531 33.208 178.337 33.4207 178.909 33.846C179.481 34.2713 179.877 34.8433 180.097 35.562C180.332 36.2807 180.449 37.08 180.449 37.96V45H178.183V38.114C178.183 37.5567 178.11 37.058 177.963 36.618C177.817 36.178 177.567 35.8333 177.215 35.584C176.863 35.3347 176.372 35.232 175.741 35.276C175.155 35.276 174.634 35.4007 174.179 35.65C173.725 35.8993 173.365 36.2293 173.101 36.64C172.837 37.0507 172.705 37.5053 172.705 38.004V45H170.439V33.45H172.705V35.276C173.057 34.7333 173.571 34.2567 174.245 33.846C174.92 33.4207 175.668 33.208 176.489 33.208ZM194.281 33.45V45H191.993V43.218C191.641 43.702 191.121 44.1567 190.431 44.582C189.742 45.0073 188.943 45.22 188.033 45.22C187.065 45.22 186.178 44.9633 185.371 44.45C184.579 43.9367 183.949 43.2253 183.479 42.316C183.01 41.4067 182.775 40.3653 182.775 39.192C182.775 38.0187 183.017 36.9847 183.501 36.09C183.985 35.1807 184.653 34.4767 185.503 33.978C186.354 33.4647 187.322 33.208 188.407 33.208C189.214 33.208 189.918 33.384 190.519 33.736C191.135 34.088 191.627 34.4987 191.993 34.968V33.45H194.281ZM188.561 43.13C189.265 43.13 189.881 42.9613 190.409 42.624C190.937 42.272 191.348 41.8027 191.641 41.216C191.935 40.6147 192.081 39.94 192.081 39.192C192.081 38.4587 191.935 37.7987 191.641 37.212C191.348 36.6253 190.937 36.1633 190.409 35.826C189.881 35.474 189.265 35.298 188.561 35.298C187.887 35.298 187.285 35.4667 186.757 35.804C186.229 36.1413 185.819 36.6033 185.525 37.19C185.232 37.7767 185.085 38.444 185.085 39.192C185.085 39.94 185.232 40.6147 185.525 41.216C185.819 41.8027 186.229 42.272 186.757 42.624C187.285 42.9613 187.887 43.13 188.561 43.13ZM199.029 46.914C199.469 47.2513 200.019 47.5227 200.679 47.728C201.339 47.9333 201.985 48.036 202.615 48.036C203.803 48.036 204.713 47.7427 205.343 47.156C205.974 46.584 206.289 45.7187 206.289 44.56V43.152C206.084 43.504 205.791 43.8413 205.409 44.164C205.028 44.472 204.581 44.7287 204.067 44.934C203.554 45.1247 203.019 45.22 202.461 45.22C201.391 45.22 200.423 44.9633 199.557 44.45C198.692 43.9367 198.003 43.2253 197.489 42.316C196.991 41.4067 196.741 40.3727 196.741 39.214C196.741 38.0407 196.991 37.0067 197.489 36.112C197.988 35.2027 198.663 34.4913 199.513 33.978C200.379 33.4647 201.339 33.208 202.395 33.208C203.275 33.208 204.053 33.406 204.727 33.802C205.417 34.1833 205.937 34.6013 206.289 35.056V33.45H208.555V44.296C208.555 45.6747 208.277 46.782 207.719 47.618C207.177 48.4687 206.451 49.0847 205.541 49.466C204.647 49.862 203.671 50.06 202.615 50.06C201.794 50.06 200.973 49.928 200.151 49.664C199.345 49.4147 198.692 49.0847 198.193 48.674L199.029 46.914ZM202.703 35.276C201.999 35.276 201.369 35.452 200.811 35.804C200.269 36.1413 199.836 36.6107 199.513 37.212C199.205 37.7987 199.051 38.466 199.051 39.214C199.051 39.962 199.205 40.6293 199.513 41.216C199.836 41.8027 200.269 42.272 200.811 42.624C201.369 42.9613 201.999 43.13 202.703 43.13C203.437 43.13 204.075 42.9613 204.617 42.624C205.175 42.2867 205.607 41.8247 205.915 41.238C206.223 40.6367 206.377 39.962 206.377 39.214C206.377 38.4513 206.223 37.7767 205.915 37.19C205.607 36.6033 205.175 36.1413 204.617 35.804C204.075 35.452 203.437 35.276 202.703 35.276ZM221.654 43.482H221.632C221.163 43.9367 220.518 44.34 219.696 44.692C218.875 45.044 218.017 45.22 217.122 45.22C215.92 45.22 214.856 44.9707 213.932 44.472C213.023 43.9587 212.312 43.262 211.798 42.382C211.285 41.4873 211.028 40.4753 211.028 39.346C211.028 38.0553 211.3 36.9553 211.842 36.046C212.385 35.122 213.104 34.418 213.998 33.934C214.893 33.4353 215.868 33.186 216.924 33.186C217.892 33.186 218.772 33.428 219.564 33.912C220.356 34.3813 220.987 35.034 221.456 35.87C221.926 36.706 222.16 37.6813 222.16 38.796L222.138 39.764H213.294C213.426 40.8053 213.852 41.634 214.57 42.25C215.304 42.8513 216.228 43.152 217.342 43.152C218.149 43.152 218.802 43.0053 219.3 42.712C219.799 42.404 220.21 42.1107 220.532 41.832L221.654 43.482ZM216.924 35.276C216.059 35.276 215.304 35.4813 214.658 35.892C214.013 36.288 213.588 36.9773 213.382 37.96H219.85V37.806C219.806 37.3073 219.638 36.8673 219.344 36.486C219.066 36.1047 218.714 35.8113 218.288 35.606C217.863 35.386 217.408 35.276 216.924 35.276ZM232.725 50.06L234.617 45.726L234.683 45.572L229.315 33.45H231.955L235.563 41.942C235.607 42.03 235.651 42.14 235.695 42.272C235.739 42.404 235.79 42.5507 235.849 42.712C235.908 42.5507 235.959 42.3967 236.003 42.25C236.062 42.0887 236.12 41.9347 236.179 41.788L239.193 33.45H241.877L237.125 45L235.167 50.06H232.725ZM254.423 39.214C254.423 40.3873 254.159 41.4287 253.631 42.338C253.118 43.2327 252.414 43.9367 251.519 44.45C250.639 44.9633 249.649 45.22 248.549 45.22C247.449 45.22 246.452 44.9633 245.557 44.45C244.663 43.9367 243.951 43.2327 243.423 42.338C242.91 41.4287 242.653 40.3873 242.653 39.214C242.653 38.0407 242.91 37.0067 243.423 36.112C243.951 35.2027 244.663 34.4913 245.557 33.978C246.452 33.4647 247.449 33.208 248.549 33.208C249.649 33.208 250.639 33.4647 251.519 33.978C252.414 34.4913 253.118 35.2027 253.631 36.112C254.159 37.0067 254.423 38.0407 254.423 39.214ZM252.113 39.214C252.128 38.4367 251.974 37.7547 251.651 37.168C251.343 36.5667 250.918 36.1047 250.375 35.782C249.833 35.4447 249.224 35.276 248.549 35.276C247.875 35.276 247.259 35.4447 246.701 35.782C246.159 36.1047 245.726 36.5667 245.403 37.168C245.095 37.7547 244.949 38.4367 244.963 39.214C244.949 39.9767 245.095 40.6587 245.403 41.26C245.726 41.8467 246.159 42.3087 246.701 42.646C247.259 42.9833 247.875 43.152 248.549 43.152C249.224 43.152 249.833 42.9833 250.375 42.646C250.918 42.3087 251.343 41.8467 251.651 41.26C251.974 40.6587 252.128 39.9767 252.113 39.214ZM264.769 40.402V33.45H267.035V45H264.769V43.152C264.431 43.6947 263.933 44.1787 263.273 44.604C262.627 45.0147 261.85 45.22 260.941 45.22C259.738 45.22 258.763 44.8093 258.015 43.988C257.267 43.1667 256.893 42.03 256.893 40.578V33.45H259.159V39.962C259.159 40.5487 259.247 41.0913 259.423 41.59C259.613 42.0887 259.907 42.492 260.303 42.8C260.713 43.0933 261.234 43.24 261.865 43.24C262.657 43.24 263.339 42.9907 263.911 42.492C264.483 41.9933 264.769 41.2967 264.769 40.402ZM276.681 35.892C276.534 35.8187 276.351 35.76 276.131 35.716C275.926 35.6573 275.706 35.628 275.471 35.628C275.002 35.628 274.54 35.7527 274.085 36.002C273.63 36.2367 273.249 36.5813 272.941 37.036C272.648 37.476 272.501 38.004 272.501 38.62V45H270.213V33.45H272.501V35.628C272.824 34.924 273.308 34.3447 273.953 33.89C274.613 33.4353 275.302 33.208 276.021 33.208C276.564 33.208 276.982 33.2813 277.275 33.428L276.681 35.892ZM6.612 61.252C7.63867 61.252 8.55533 61.5087 9.362 62.022C10.1833 62.5207 10.8287 63.2173 11.298 64.112C11.7673 65.0067 12.002 66.0407 12.002 67.214C12.002 68.3727 11.7673 69.4067 11.298 70.316C10.8287 71.2107 10.1907 71.9147 9.384 72.428C8.57733 72.9413 7.67533 73.198 6.678 73.198C5.85667 73.198 5.10867 73.022 4.434 72.67C3.774 72.318 3.25333 71.9147 2.872 71.46V77.84H0.584V61.428H2.872V63.122C3.20933 62.638 3.71533 62.2053 4.39 61.824C5.06467 61.4427 5.80533 61.252 6.612 61.252ZM6.304 63.342C5.61467 63.342 4.99867 63.5107 4.456 63.848C3.928 64.1853 3.51 64.6473 3.202 65.234C2.90867 65.806 2.762 66.466 2.762 67.214C2.762 67.9473 2.90867 68.6073 3.202 69.194C3.51 69.7807 3.928 70.25 4.456 70.602C4.99867 70.9393 5.61467 71.108 6.304 71.108C6.99333 71.108 7.602 70.9393 8.13 70.602C8.658 70.25 9.06867 69.7807 9.362 69.194C9.67 68.6073 9.824 67.9473 9.824 67.214C9.824 66.466 9.67 65.806 9.362 65.234C9.06867 64.6473 8.658 64.1853 8.13 63.848C7.602 63.5107 6.99333 63.342 6.304 63.342ZM20.9309 63.892C20.7842 63.8187 20.6009 63.76 20.3809 63.716C20.1756 63.6573 19.9556 63.628 19.7209 63.628C19.2516 63.628 18.7896 63.7527 18.3349 64.002C17.8802 64.2367 17.4989 64.5813 17.1909 65.036C16.8976 65.476 16.7509 66.004 16.7509 66.62V73H14.4629V61.45H16.7509V63.628C17.0736 62.924 17.5576 62.3447 18.2029 61.89C18.8629 61.4353 19.5522 61.208 20.2709 61.208C20.8136 61.208 21.2316 61.2813 21.5249 61.428L20.9309 63.892ZM33.9078 67.214C33.9078 68.3873 33.6438 69.4287 33.1158 70.338C32.6025 71.2327 31.8985 71.9367 31.0038 72.45C30.1238 72.9633 29.1338 73.22 28.0338 73.22C26.9338 73.22 25.9365 72.9633 25.0418 72.45C24.1471 71.9367 23.4358 71.2327 22.9078 70.338C22.3945 69.4287 22.1378 68.3873 22.1378 67.214C22.1378 66.0407 22.3945 65.0067 22.9078 64.112C23.4358 63.2027 24.1471 62.4913 25.0418 61.978C25.9365 61.4647 26.9338 61.208 28.0338 61.208C29.1338 61.208 30.1238 61.4647 31.0038 61.978C31.8985 62.4913 32.6025 63.2027 33.1158 64.112C33.6438 65.0067 33.9078 66.0407 33.9078 67.214ZM31.5978 67.214C31.6125 66.4367 31.4585 65.7547 31.1358 65.168C30.8278 64.5667 30.4025 64.1047 29.8598 63.782C29.3171 63.4447 28.7085 63.276 28.0338 63.276C27.3591 63.276 26.7431 63.4447 26.1858 63.782C25.6431 64.1047 25.2105 64.5667 24.8878 65.168C24.5798 65.7547 24.4331 66.4367 24.4478 67.214C24.4331 67.9767 24.5798 68.6587 24.8878 69.26C25.2105 69.8467 25.6431 70.3087 26.1858 70.646C26.7431 70.9833 27.3591 71.152 28.0338 71.152C28.7085 71.152 29.3171 70.9833 29.8598 70.646C30.4025 70.3087 30.8278 69.8467 31.1358 69.26C31.4585 68.6587 31.6125 67.9767 31.5978 67.214ZM38.929 73.528C38.929 74.3053 38.753 74.98 38.401 75.552C38.0636 76.124 37.5943 76.564 36.993 76.872C36.3916 77.18 35.717 77.334 34.969 77.334L34.111 75.596C35.0056 75.596 35.651 75.3613 36.047 74.892C36.4576 74.4227 36.663 73.7847 36.663 72.978V61.45H38.929V73.528ZM37.851 58.81C37.3376 58.81 36.9563 58.678 36.707 58.414C36.4576 58.15 36.333 57.8053 36.333 57.38C36.333 57.0133 36.4576 56.6833 36.707 56.39C36.9563 56.0967 37.3376 55.95 37.851 55.95C38.3643 55.95 38.7456 56.082 38.995 56.346C39.2443 56.61 39.369 56.9547 39.369 57.38C39.369 57.7467 39.2443 58.0767 38.995 58.37C38.7456 58.6633 38.3643 58.81 37.851 58.81ZM52.0783 71.482H52.0563C51.5869 71.9367 50.9416 72.34 50.1203 72.692C49.2989 73.044 48.4409 73.22 47.5463 73.22C46.3436 73.22 45.2803 72.9707 44.3563 72.472C43.4469 71.9587 42.7356 71.262 42.2223 70.382C41.7089 69.4873 41.4523 68.4753 41.4523 67.346C41.4523 66.0553 41.7236 64.9553 42.2663 64.046C42.8089 63.122 43.5276 62.418 44.4223 61.934C45.3169 61.4353 46.2923 61.186 47.3483 61.186C48.3163 61.186 49.1963 61.428 49.9883 61.912C50.7803 62.3813 51.4109 63.034 51.8803 63.87C52.3496 64.706 52.5843 65.6813 52.5843 66.796L52.5623 67.764H43.7183C43.8503 68.8053 44.2756 69.634 44.9943 70.25C45.7276 70.8513 46.6516 71.152 47.7663 71.152C48.5729 71.152 49.2256 71.0053 49.7243 70.712C50.2229 70.404 50.6336 70.1107 50.9563 69.832L52.0783 71.482ZM47.3483 63.276C46.4829 63.276 45.7276 63.4813 45.0823 63.892C44.4369 64.288 44.0116 64.9773 43.8063 65.96H50.2743V65.806C50.2303 65.3073 50.0616 64.8673 49.7683 64.486C49.4896 64.1047 49.1376 63.8113 48.7123 63.606C48.2869 63.386 47.8323 63.276 47.3483 63.276ZM56.4989 67.214C56.4989 67.9767 56.6676 68.6587 57.0049 69.26C57.3569 69.8467 57.8116 70.316 58.3689 70.668C58.9409 71.0053 59.5496 71.174 60.1949 71.174C60.9282 71.174 61.5662 70.9833 62.1089 70.602C62.6516 70.2207 63.0916 69.8247 63.4289 69.414L64.6829 70.954C64.4042 71.35 64.0229 71.724 63.5389 72.076C63.0549 72.4133 62.5049 72.692 61.8889 72.912C61.2729 73.1173 60.6276 73.22 59.9529 73.22C58.8969 73.22 57.9436 72.956 57.0929 72.428C56.2422 71.9 55.5676 71.1813 55.0689 70.272C54.5849 69.3627 54.3429 68.3433 54.3429 67.214C54.3429 66.07 54.5849 65.0507 55.0689 64.156C55.5676 63.2467 56.2422 62.528 57.0929 62C57.9436 61.472 58.8969 61.208 59.9529 61.208C61.0236 61.208 61.9769 61.428 62.8129 61.868C63.6489 62.2933 64.2722 62.8507 64.6829 63.54L63.4289 65.08C63.0916 64.5813 62.6076 64.156 61.9769 63.804C61.3609 63.4373 60.7596 63.254 60.1729 63.254C59.4836 63.254 58.8602 63.43 58.3029 63.782C57.7456 64.1193 57.3056 64.5887 56.9829 65.19C56.6602 65.7767 56.4989 66.4513 56.4989 67.214ZM70.5163 73H68.2503V63.65H65.8523V61.45H68.2503V58.502H70.5163V61.45H73.2003V63.65H70.5163V73ZM82.3594 64.486C81.9487 64.0753 81.4794 63.738 80.9514 63.474C80.438 63.21 79.9614 63.078 79.5214 63.078C79.2134 63.078 78.9054 63.1147 78.5974 63.188C78.304 63.2613 78.0547 63.4007 77.8494 63.606C77.644 63.7967 77.5414 64.0827 77.5414 64.464C77.556 64.992 77.7907 65.366 78.2454 65.586C78.7147 65.806 79.294 66.004 79.9834 66.18C80.5847 66.3413 81.1714 66.5467 81.7434 66.796C82.3154 67.0307 82.7847 67.3827 83.1514 67.852C83.5327 68.3067 83.7234 68.952 83.7234 69.788C83.7234 70.5067 83.518 71.1227 83.1074 71.636C82.7114 72.1493 82.1907 72.5453 81.5454 72.824C80.9147 73.088 80.2474 73.22 79.5434 73.22C78.7074 73.22 77.8787 73.0733 77.0574 72.78C76.2507 72.472 75.5614 71.9513 74.9894 71.218L76.5294 69.898C76.9254 70.3527 77.3727 70.712 77.8714 70.976C78.3847 71.2253 79.008 71.35 79.7414 71.35C80.02 71.35 80.2987 71.306 80.5774 71.218C80.856 71.1153 81.0907 70.9613 81.2814 70.756C81.4867 70.536 81.5894 70.2427 81.5894 69.876C81.5894 69.524 81.4794 69.2527 81.2594 69.062C81.054 68.8567 80.7754 68.6953 80.4234 68.578C80.0714 68.446 79.6827 68.3287 79.2574 68.226C78.6267 68.05 78.0034 67.8373 77.3874 67.588C76.786 67.324 76.28 66.9573 75.8694 66.488C75.4734 66.004 75.2754 65.3513 75.2754 64.53C75.2754 63.8407 75.466 63.254 75.8474 62.77C76.2434 62.2713 76.7567 61.89 77.3874 61.626C78.018 61.3473 78.6927 61.208 79.4114 61.208C80.1007 61.208 80.8487 61.3547 81.6554 61.648C82.462 61.9413 83.1294 62.4107 83.6574 63.056L82.3594 64.486ZM89.4987 72.912C89.4987 73.528 89.3594 74.1073 89.0807 74.65C88.8021 75.1927 88.4354 75.662 87.9807 76.058C87.5407 76.454 87.0714 76.7473 86.5727 76.938L85.7367 75.926C86.2501 75.6327 86.6681 75.2953 86.9907 74.914C87.3134 74.5327 87.4747 74.2027 87.4747 73.924C87.4747 73.704 87.4087 73.506 87.2767 73.33C87.1447 73.1687 86.9981 73.0147 86.8367 72.868C86.6754 72.7067 86.5287 72.5307 86.3967 72.34C86.2647 72.1347 86.1987 71.8853 86.1987 71.592C86.1987 71.2253 86.3307 70.9393 86.5947 70.734C86.8587 70.5287 87.1741 70.426 87.5407 70.426C88.0394 70.426 88.4867 70.6387 88.8827 71.064C89.2934 71.4893 89.4987 72.1053 89.4987 72.912ZM99.704 67.214C99.704 67.9767 99.8726 68.6587 100.21 69.26C100.562 69.8467 101.017 70.316 101.574 70.668C102.146 71.0053 102.755 71.174 103.4 71.174C104.133 71.174 104.771 70.9833 105.314 70.602C105.857 70.2207 106.297 69.8247 106.634 69.414L107.888 70.954C107.609 71.35 107.228 71.724 106.744 72.076C106.26 72.4133 105.71 72.692 105.094 72.912C104.478 73.1173 103.833 73.22 103.158 73.22C102.102 73.22 101.149 72.956 100.298 72.428C99.4473 71.9 98.7726 71.1813 98.274 70.272C97.79 69.3627 97.548 68.3433 97.548 67.214C97.548 66.07 97.79 65.0507 98.274 64.156C98.7726 63.2467 99.4473 62.528 100.298 62C101.149 61.472 102.102 61.208 103.158 61.208C104.229 61.208 105.182 61.428 106.018 61.868C106.854 62.2933 107.477 62.8507 107.888 63.54L106.634 65.08C106.297 64.5813 105.813 64.156 105.182 63.804C104.566 63.4373 103.965 63.254 103.378 63.254C102.689 63.254 102.065 63.43 101.508 63.782C100.951 64.1193 100.511 64.5887 100.188 65.19C99.8653 65.7767 99.704 66.4513 99.704 67.214ZM116.493 63.892C116.347 63.8187 116.163 63.76 115.943 63.716C115.738 63.6573 115.518 63.628 115.283 63.628C114.814 63.628 114.352 63.7527 113.897 64.002C113.443 64.2367 113.061 64.5813 112.753 65.036C112.46 65.476 112.313 66.004 112.313 66.62V73H110.025V61.45H112.313V63.628C112.636 62.924 113.12 62.3447 113.765 61.89C114.425 61.4353 115.115 61.208 115.833 61.208C116.376 61.208 116.794 61.2813 117.087 61.428L116.493 63.892ZM128.326 71.482H128.304C127.835 71.9367 127.19 72.34 126.368 72.692C125.547 73.044 124.689 73.22 123.794 73.22C122.592 73.22 121.528 72.9707 120.604 72.472C119.695 71.9587 118.984 71.262 118.47 70.382C117.957 69.4873 117.7 68.4753 117.7 67.346C117.7 66.0553 117.972 64.9553 118.514 64.046C119.057 63.122 119.776 62.418 120.67 61.934C121.565 61.4353 122.54 61.186 123.596 61.186C124.564 61.186 125.444 61.428 126.236 61.912C127.028 62.3813 127.659 63.034 128.128 63.87C128.598 64.706 128.832 65.6813 128.832 66.796L128.81 67.764H119.966C120.098 68.8053 120.524 69.634 121.242 70.25C121.976 70.8513 122.9 71.152 124.014 71.152C124.821 71.152 125.474 71.0053 125.972 70.712C126.471 70.404 126.882 70.1107 127.204 69.832L128.326 71.482ZM123.596 63.276C122.731 63.276 121.976 63.4813 121.33 63.892C120.685 64.288 120.26 64.9773 120.054 65.96H126.522V65.806C126.478 65.3073 126.31 64.8673 126.016 64.486C125.738 64.1047 125.386 63.8113 124.96 63.606C124.535 63.386 124.08 63.276 123.596 63.276ZM142.053 61.45V73H139.765V71.218C139.413 71.702 138.892 72.1567 138.203 72.582C137.514 73.0073 136.714 73.22 135.805 73.22C134.837 73.22 133.95 72.9633 133.143 72.45C132.351 71.9367 131.72 71.2253 131.251 70.316C130.782 69.4067 130.547 68.3653 130.547 67.192C130.547 66.0187 130.789 64.9847 131.273 64.09C131.757 63.1807 132.424 62.4767 133.275 61.978C134.126 61.4647 135.094 61.208 136.179 61.208C136.986 61.208 137.69 61.384 138.291 61.736C138.907 62.088 139.398 62.4987 139.765 62.968V61.45H142.053ZM136.333 71.13C137.037 71.13 137.653 70.9613 138.181 70.624C138.709 70.272 139.12 69.8027 139.413 69.216C139.706 68.6147 139.853 67.94 139.853 67.192C139.853 66.4587 139.706 65.7987 139.413 65.212C139.12 64.6253 138.709 64.1633 138.181 63.826C137.653 63.474 137.037 63.298 136.333 63.298C135.658 63.298 135.057 63.4667 134.529 63.804C134.001 64.1413 133.59 64.6033 133.297 65.19C133.004 65.7767 132.857 66.444 132.857 67.192C132.857 67.94 133.004 68.6147 133.297 69.216C133.59 69.8027 134.001 70.272 134.529 70.624C135.057 70.9613 135.658 71.13 136.333 71.13ZM148.913 73H146.647V63.65H144.249V61.45H146.647V58.502H148.913V61.45H151.597V63.65H148.913V73ZM163.475 71.482H163.453C162.983 71.9367 162.338 72.34 161.517 72.692C160.695 73.044 159.837 73.22 158.943 73.22C157.74 73.22 156.677 72.9707 155.753 72.472C154.843 71.9587 154.132 71.262 153.619 70.382C153.105 69.4873 152.849 68.4753 152.849 67.346C152.849 66.0553 153.12 64.9553 153.663 64.046C154.205 63.122 154.924 62.418 155.819 61.934C156.713 61.4353 157.689 61.186 158.745 61.186C159.713 61.186 160.593 61.428 161.385 61.912C162.177 62.3813 162.807 63.034 163.277 63.87C163.746 64.706 163.981 65.6813 163.981 66.796L163.959 67.764H155.115C155.247 68.8053 155.672 69.634 156.391 70.25C157.124 70.8513 158.048 71.152 159.163 71.152C159.969 71.152 160.622 71.0053 161.121 70.712C161.619 70.404 162.03 70.1107 162.353 69.832L163.475 71.482ZM158.745 63.276C157.879 63.276 157.124 63.4813 156.479 63.892C155.833 64.288 155.408 64.9773 155.203 65.96H161.671V65.806C161.627 65.3073 161.458 64.8673 161.165 64.486C160.886 64.1047 160.534 63.8113 160.109 63.606C159.683 63.386 159.229 63.276 158.745 63.276ZM176.305 73H174.039V63.65H171.641V61.45H174.039V58.502H176.305V61.45H178.989V63.65H176.305V73ZM191.703 61.45V73H189.415V71.218C189.063 71.702 188.543 72.1567 187.853 72.582C187.164 73.0073 186.365 73.22 185.455 73.22C184.487 73.22 183.6 72.9633 182.793 72.45C182.001 71.9367 181.371 71.2253 180.901 70.316C180.432 69.4067 180.197 68.3653 180.197 67.192C180.197 66.0187 180.439 64.9847 180.923 64.09C181.407 63.1807 182.075 62.4767 182.925 61.978C183.776 61.4647 184.744 61.208 185.829 61.208C186.636 61.208 187.34 61.384 187.941 61.736C188.557 62.088 189.049 62.4987 189.415 62.968V61.45H191.703ZM185.983 71.13C186.687 71.13 187.303 70.9613 187.831 70.624C188.359 70.272 188.77 69.8027 189.063 69.216C189.357 68.6147 189.503 67.94 189.503 67.192C189.503 66.4587 189.357 65.7987 189.063 65.212C188.77 64.6253 188.359 64.1633 187.831 63.826C187.303 63.474 186.687 63.298 185.983 63.298C185.309 63.298 184.707 63.4667 184.179 63.804C183.651 64.1413 183.241 64.6033 182.947 65.19C182.654 65.7767 182.507 66.444 182.507 67.192C182.507 67.94 182.654 68.6147 182.947 69.216C183.241 69.8027 183.651 70.272 184.179 70.624C184.707 70.9613 185.309 71.13 185.983 71.13ZM201.533 64.486C201.123 64.0753 200.653 63.738 200.125 63.474C199.612 63.21 199.135 63.078 198.695 63.078C198.387 63.078 198.079 63.1147 197.771 63.188C197.478 63.2613 197.229 63.4007 197.023 63.606C196.818 63.7967 196.715 64.0827 196.715 64.464C196.73 64.992 196.965 65.366 197.419 65.586C197.889 65.806 198.468 66.004 199.157 66.18C199.759 66.3413 200.345 66.5467 200.917 66.796C201.489 67.0307 201.959 67.3827 202.325 67.852C202.707 68.3067 202.897 68.952 202.897 69.788C202.897 70.5067 202.692 71.1227 202.281 71.636C201.885 72.1493 201.365 72.5453 200.719 72.824C200.089 73.088 199.421 73.22 198.717 73.22C197.881 73.22 197.053 73.0733 196.231 72.78C195.425 72.472 194.735 71.9513 194.163 71.218L195.703 69.898C196.099 70.3527 196.547 70.712 197.045 70.976C197.559 71.2253 198.182 71.35 198.915 71.35C199.194 71.35 199.473 71.306 199.751 71.218C200.03 71.1153 200.265 70.9613 200.455 70.756C200.661 70.536 200.763 70.2427 200.763 69.876C200.763 69.524 200.653 69.2527 200.433 69.062C200.228 68.8567 199.949 68.6953 199.597 68.578C199.245 68.446 198.857 68.3287 198.431 68.226C197.801 68.05 197.177 67.8373 196.561 67.588C195.96 67.324 195.454 66.9573 195.043 66.488C194.647 66.004 194.449 65.3513 194.449 64.53C194.449 63.8407 194.64 63.254 195.021 62.77C195.417 62.2713 195.931 61.89 196.561 61.626C197.192 61.3473 197.867 61.208 198.585 61.208C199.275 61.208 200.023 61.3547 200.829 61.648C201.636 61.9413 202.303 62.4107 202.831 63.056L201.533 64.486ZM205.395 73V56.72H207.661V66.62L212.875 61.45H215.933L210.521 66.532L216.087 73H213.183L208.915 68.028L207.661 69.216V73H205.395ZM224.457 64.486C224.046 64.0753 223.577 63.738 223.049 63.474C222.536 63.21 222.059 63.078 221.619 63.078C221.311 63.078 221.003 63.1147 220.695 63.188C220.402 63.2613 220.152 63.4007 219.947 63.606C219.742 63.7967 219.639 64.0827 219.639 64.464C219.654 64.992 219.888 65.366 220.343 65.586C220.812 65.806 221.392 66.004 222.081 66.18C222.682 66.3413 223.269 66.5467 223.841 66.796C224.413 67.0307 224.882 67.3827 225.249 67.852C225.63 68.3067 225.821 68.952 225.821 69.788C225.821 70.5067 225.616 71.1227 225.205 71.636C224.809 72.1493 224.288 72.5453 223.643 72.824C223.012 73.088 222.345 73.22 221.641 73.22C220.805 73.22 219.976 73.0733 219.155 72.78C218.348 72.472 217.659 71.9513 217.087 71.218L218.627 69.898C219.023 70.3527 219.47 70.712 219.969 70.976C220.482 71.2253 221.106 71.35 221.839 71.35C222.118 71.35 222.396 71.306 222.675 71.218C222.954 71.1153 223.188 70.9613 223.379 70.756C223.584 70.536 223.687 70.2427 223.687 69.876C223.687 69.524 223.577 69.2527 223.357 69.062C223.152 68.8567 222.873 68.6953 222.521 68.578C222.169 68.446 221.78 68.3287 221.355 68.226C220.724 68.05 220.101 67.8373 219.485 67.588C218.884 67.324 218.378 66.9573 217.967 66.488C217.571 66.004 217.373 65.3513 217.373 64.53C217.373 63.8407 217.564 63.254 217.945 62.77C218.341 62.2713 218.854 61.89 219.485 61.626C220.116 61.3473 220.79 61.208 221.509 61.208C222.198 61.208 222.946 61.3547 223.753 61.648C224.56 61.9413 225.227 62.4107 225.755 63.056L224.457 64.486ZM231.596 72.912C231.596 73.528 231.457 74.1073 231.178 74.65C230.9 75.1927 230.533 75.662 230.078 76.058C229.638 76.454 229.169 76.7473 228.67 76.938L227.834 75.926C228.348 75.6327 228.766 75.2953 229.088 74.914C229.411 74.5327 229.572 74.2027 229.572 73.924C229.572 73.704 229.506 73.506 229.374 73.33C229.242 73.1687 229.096 73.0147 228.934 72.868C228.773 72.7067 228.626 72.5307 228.494 72.34C228.362 72.1347 228.296 71.8853 228.296 71.592C228.296 71.2253 228.428 70.9393 228.692 70.734C228.956 70.5287 229.272 70.426 229.638 70.426C230.137 70.426 230.584 70.6387 230.98 71.064C231.391 71.4893 231.596 72.1053 231.596 72.912ZM251.108 61.45V73H248.82V71.218C248.468 71.702 247.947 72.1567 247.258 72.582C246.568 73.0073 245.769 73.22 244.86 73.22C243.892 73.22 243.004 72.9633 242.198 72.45C241.406 71.9367 240.775 71.2253 240.306 70.316C239.836 69.4067 239.602 68.3653 239.602 67.192C239.602 66.0187 239.844 64.9847 240.328 64.09C240.812 63.1807 241.479 62.4767 242.33 61.978C243.18 61.4647 244.148 61.208 245.234 61.208C246.04 61.208 246.744 61.384 247.346 61.736C247.962 62.088 248.453 62.4987 248.82 62.968V61.45H251.108ZM245.388 71.13C246.092 71.13 246.708 70.9613 247.236 70.624C247.764 70.272 248.174 69.8027 248.468 69.216C248.761 68.6147 248.908 67.94 248.908 67.192C248.908 66.4587 248.761 65.7987 248.468 65.212C248.174 64.6253 247.764 64.1633 247.236 63.826C246.708 63.474 246.092 63.298 245.388 63.298C244.713 63.298 244.112 63.4667 243.584 63.804C243.056 64.1413 242.645 64.6033 242.352 65.19C242.058 65.7767 241.912 66.444 241.912 67.192C241.912 67.94 242.058 68.6147 242.352 69.216C242.645 69.8027 243.056 70.272 243.584 70.624C244.112 70.9613 244.713 71.13 245.388 71.13ZM260.322 61.208C261.363 61.208 262.17 61.4207 262.742 61.846C263.314 62.2713 263.71 62.8433 263.93 63.562C264.164 64.2807 264.282 65.08 264.282 65.96V73H262.016V66.114C262.016 65.5567 261.942 65.058 261.796 64.618C261.649 64.178 261.4 63.8333 261.048 63.584C260.696 63.3347 260.204 63.232 259.574 63.276C258.987 63.276 258.466 63.4007 258.012 63.65C257.557 63.8993 257.198 64.2293 256.934 64.64C256.67 65.0507 256.538 65.5053 256.538 66.004V73H254.272V61.45H256.538V63.276C256.89 62.7333 257.403 62.2567 258.078 61.846C258.752 61.4207 259.5 61.208 260.322 61.208ZM278.179 56.72V73H275.913V71.372C275.576 71.8267 275.077 72.252 274.417 72.648C273.757 73.0293 273.009 73.22 272.173 73.22C271.132 73.22 270.193 72.9633 269.357 72.45C268.521 71.9367 267.861 71.2253 267.377 70.316C266.893 69.4067 266.651 68.3727 266.651 67.214C266.651 66.0407 266.893 65.0067 267.377 64.112C267.861 63.2027 268.514 62.4913 269.335 61.978C270.157 61.4647 271.081 61.208 272.107 61.208C272.929 61.208 273.669 61.3767 274.329 61.714C275.004 62.0513 275.532 62.4473 275.913 62.902V56.72H278.179ZM272.481 71.262C273.185 71.262 273.801 71.086 274.329 70.734C274.857 70.382 275.268 69.898 275.561 69.282C275.855 68.666 276.001 67.9767 276.001 67.214C276.001 66.4367 275.855 65.7473 275.561 65.146C275.268 64.53 274.857 64.046 274.329 63.694C273.801 63.342 273.185 63.166 272.481 63.166C271.792 63.166 271.183 63.342 270.655 63.694C270.127 64.046 269.709 64.53 269.401 65.146C269.108 65.7473 268.961 66.4367 268.961 67.214C268.961 67.9767 269.108 68.666 269.401 69.282C269.709 69.898 270.127 70.382 270.655 70.734C271.183 71.086 271.792 71.262 272.481 71.262ZM6.458 89.252C7.41133 89.252 8.174 89.472 8.746 89.912C9.318 90.3373 9.72867 90.924 9.978 91.672C10.1833 91.3053 10.484 90.9387 10.88 90.572C11.276 90.1907 11.738 89.8753 12.266 89.626C12.794 89.3767 13.3587 89.252 13.96 89.252C14.9573 89.252 15.7347 89.472 16.292 89.912C16.8493 90.3373 17.238 90.9167 17.458 91.65C17.6927 92.3687 17.81 93.1753 17.81 94.07V101H15.522V94.202C15.522 93.3513 15.3607 92.662 15.038 92.134C14.7153 91.606 14.1067 91.342 13.212 91.342C12.3613 91.342 11.6573 91.6133 11.1 92.156C10.5573 92.684 10.286 93.3293 10.286 94.092V101H7.998V94.158C7.998 93.3367 7.822 92.662 7.47 92.134C7.118 91.606 6.53867 91.342 5.732 91.342C5.17467 91.342 4.676 91.4667 4.236 91.716C3.796 91.9653 3.45133 92.2953 3.202 92.706C2.95267 93.102 2.828 93.5493 2.828 94.048V101H0.54V89.45H2.828V91.298C3.18 90.77 3.67133 90.3007 4.302 89.89C4.94733 89.4647 5.666 89.252 6.458 89.252ZM31.6018 89.45V101H29.3138V99.218C28.9618 99.702 28.4411 100.157 27.7518 100.582C27.0624 101.007 26.2631 101.22 25.3538 101.22C24.3858 101.22 23.4984 100.963 22.6918 100.45C21.8998 99.9367 21.2691 99.2253 20.7998 98.316C20.3304 97.4067 20.0958 96.3653 20.0958 95.192C20.0958 94.0187 20.3378 92.9847 20.8218 92.09C21.3058 91.1807 21.9731 90.4767 22.8238 89.978C23.6744 89.4647 24.6424 89.208 25.7278 89.208C26.5344 89.208 27.2384 89.384 27.8398 89.736C28.4558 90.088 28.9471 90.4987 29.3138 90.968V89.45H31.6018ZM25.8818 99.13C26.5858 99.13 27.2018 98.9613 27.7298 98.624C28.2578 98.272 28.6684 97.8027 28.9618 97.216C29.2551 96.6147 29.4018 95.94 29.4018 95.192C29.4018 94.4587 29.2551 93.7987 28.9618 93.212C28.6684 92.6253 28.2578 92.1633 27.7298 91.826C27.2018 91.474 26.5858 91.298 25.8818 91.298C25.2071 91.298 24.6058 91.4667 24.0778 91.804C23.5498 92.1413 23.1391 92.6033 22.8458 93.19C22.5524 93.7767 22.4058 94.444 22.4058 95.192C22.4058 95.94 22.5524 96.6147 22.8458 97.216C23.1391 97.8027 23.5498 98.272 24.0778 98.624C24.6058 98.9613 25.2071 99.13 25.8818 99.13ZM40.8156 89.208C41.857 89.208 42.6636 89.4207 43.2356 89.846C43.8076 90.2713 44.2036 90.8433 44.4236 91.562C44.6583 92.2807 44.7756 93.08 44.7756 93.96V101H42.5096V94.114C42.5096 93.5567 42.4363 93.058 42.2896 92.618C42.143 92.178 41.8936 91.8333 41.5416 91.584C41.1896 91.3347 40.6983 91.232 40.0676 91.276C39.481 91.276 38.9603 91.4007 38.5056 91.65C38.051 91.8993 37.6916 92.2293 37.4276 92.64C37.1636 93.0507 37.0316 93.5053 37.0316 94.004V101H34.7656V89.45H37.0316V91.276C37.3836 90.7333 37.897 90.2567 38.5716 89.846C39.2463 89.4207 39.9943 89.208 40.8156 89.208ZM49.6782 106.06L51.5702 101.726L51.6362 101.572L46.2682 89.45H48.9082L52.5162 97.942C52.5602 98.03 52.6042 98.14 52.6482 98.272C52.6922 98.404 52.7435 98.5507 52.8022 98.712C52.8609 98.5507 52.9122 98.3967 52.9562 98.25C53.0149 98.0887 53.0735 97.9347 53.1322 97.788L56.1462 89.45H58.8302L54.0782 101L52.1202 106.06H49.6782ZM72.5654 89.252C73.5188 89.252 74.2814 89.472 74.8534 89.912C75.4254 90.3373 75.8361 90.924 76.0854 91.672C76.2908 91.3053 76.5914 90.9387 76.9874 90.572C77.3834 90.1907 77.8454 89.8753 78.3734 89.626C78.9014 89.3767 79.4661 89.252 80.0674 89.252C81.0648 89.252 81.8421 89.472 82.3994 89.912C82.9568 90.3373 83.3454 90.9167 83.5654 91.65C83.8001 92.3687 83.9174 93.1753 83.9174 94.07V101H81.6294V94.202C81.6294 93.3513 81.4681 92.662 81.1454 92.134C80.8228 91.606 80.2141 91.342 79.3194 91.342C78.4688 91.342 77.7648 91.6133 77.2074 92.156C76.6648 92.684 76.3934 93.3293 76.3934 94.092V101H74.1054V94.158C74.1054 93.3367 73.9294 92.662 73.5774 92.134C73.2254 91.606 72.6461 91.342 71.8394 91.342C71.2821 91.342 70.7834 91.4667 70.3434 91.716C69.9034 91.9653 69.5588 92.2953 69.3094 92.706C69.0601 93.102 68.9354 93.5493 68.9354 94.048V101H66.6474V89.45H68.9354V91.298C69.2874 90.77 69.7788 90.3007 70.4094 89.89C71.0548 89.4647 71.7734 89.252 72.5654 89.252ZM98.0172 95.214C98.0172 96.3873 97.7532 97.4287 97.2252 98.338C96.7119 99.2327 96.0079 99.9367 95.1132 100.45C94.2332 100.963 93.2432 101.22 92.1432 101.22C91.0432 101.22 90.0459 100.963 89.1512 100.45C88.2565 99.9367 87.5452 99.2327 87.0172 98.338C86.5039 97.4287 86.2472 96.3873 86.2472 95.214C86.2472 94.0407 86.5039 93.0067 87.0172 92.112C87.5452 91.2027 88.2565 90.4913 89.1512 89.978C90.0459 89.4647 91.0432 89.208 92.1432 89.208C93.2432 89.208 94.2332 89.4647 95.1132 89.978C96.0079 90.4913 96.7119 91.2027 97.2252 92.112C97.7532 93.0067 98.0172 94.0407 98.0172 95.214ZM95.7072 95.214C95.7219 94.4367 95.5679 93.7547 95.2452 93.168C94.9372 92.5667 94.5119 92.1047 93.9692 91.782C93.4265 91.4447 92.8179 91.276 92.1432 91.276C91.4685 91.276 90.8525 91.4447 90.2952 91.782C89.7525 92.1047 89.3199 92.5667 88.9972 93.168C88.6892 93.7547 88.5425 94.4367 88.5572 95.214C88.5425 95.9767 88.6892 96.6587 88.9972 97.26C89.3199 97.8467 89.7525 98.3087 90.2952 98.646C90.8525 98.9833 91.4685 99.152 92.1432 99.152C92.8179 99.152 93.4265 98.9833 93.9692 98.646C94.5119 98.3087 94.9372 97.8467 95.2452 97.26C95.5679 96.6587 95.7219 95.9767 95.7072 95.214ZM106.954 91.892C106.808 91.8187 106.624 91.76 106.404 91.716C106.199 91.6573 105.979 91.628 105.744 91.628C105.275 91.628 104.813 91.7527 104.358 92.002C103.904 92.2367 103.522 92.5813 103.214 93.036C102.921 93.476 102.774 94.004 102.774 94.62V101H100.486V89.45H102.774V91.628C103.097 90.924 103.581 90.3447 104.226 89.89C104.886 89.4353 105.576 89.208 106.294 89.208C106.837 89.208 107.255 89.2813 107.548 89.428L106.954 91.892ZM118.787 99.482H118.765C118.296 99.9367 117.651 100.34 116.829 100.692C116.008 101.044 115.15 101.22 114.255 101.22C113.053 101.22 111.989 100.971 111.065 100.472C110.156 99.9587 109.445 99.262 108.931 98.382C108.418 97.4873 108.161 96.4753 108.161 95.346C108.161 94.0553 108.433 92.9553 108.975 92.046C109.518 91.122 110.237 90.418 111.131 89.934C112.026 89.4353 113.001 89.186 114.057 89.186C115.025 89.186 115.905 89.428 116.697 89.912C117.489 90.3813 118.12 91.034 118.589 91.87C119.059 92.706 119.293 93.6813 119.293 94.796L119.271 95.764H110.427C110.559 96.8053 110.985 97.634 111.703 98.25C112.437 98.8513 113.361 99.152 114.475 99.152C115.282 99.152 115.935 99.0053 116.433 98.712C116.932 98.404 117.343 98.1107 117.665 97.832L118.787 99.482ZM114.057 91.276C113.192 91.276 112.437 91.4813 111.791 91.892C111.146 92.288 110.721 92.9773 110.515 93.96H116.983V93.806C116.939 93.3073 116.771 92.8673 116.477 92.486C116.199 92.1047 115.847 91.8113 115.421 91.606C114.996 91.386 114.541 91.276 114.057 91.276ZM122.68 101.242C122.167 101.242 121.785 101.095 121.536 100.802C121.287 100.494 121.162 100.091 121.162 99.592C121.162 99.1667 121.287 98.7853 121.536 98.448C121.785 98.1107 122.167 97.942 122.68 97.942C123.193 97.942 123.575 98.096 123.824 98.404C124.073 98.6973 124.198 99.0933 124.198 99.592C124.198 100.003 124.073 100.384 123.824 100.736C123.575 101.073 123.193 101.242 122.68 101.242Z" fill="white"/>
</svg>
