<svg width="409" height="145" viewBox="0 0 409 145" fill="none" xmlns="http://www.w3.org/2000/svg">
<path d="M68.984 3.6L52.928 54H47.528L34.568 23.4L22.04 54H16.784L0.728 3.6H9.008L18.728 35.136C19.064 36.288 19.352 37.392 19.592 38.448C19.88 39.504 20.12 40.512 20.312 41.472C20.552 40.512 20.84 39.504 21.176 38.448C21.512 37.392 21.92 36.264 22.4 35.064L31.472 12.312H38.456L47.24 35.064C47.768 36.36 48.2 37.536 48.536 38.592C48.872 39.6 49.16 40.536 49.4 41.4C49.544 40.536 49.736 39.576 49.976 38.52C50.264 37.464 50.624 36.264 51.056 34.92L60.632 3.6H68.984ZM106.547 49.032H106.475C104.939 50.52 102.827 51.84 100.139 52.992C97.4506 54.144 94.6426 54.72 91.7146 54.72C87.7786 54.72 84.2986 53.904 81.2746 52.272C78.2986 50.592 75.9706 48.312 74.2906 45.432C72.6106 42.504 71.7706 39.192 71.7706 35.496C71.7706 31.272 72.6586 27.672 74.4346 24.696C76.2106 21.672 78.5626 19.368 81.4906 17.784C84.4186 16.152 87.6106 15.336 91.0666 15.336C94.2346 15.336 97.1146 16.128 99.7066 17.712C102.299 19.248 104.363 21.384 105.899 24.12C107.435 26.856 108.203 30.048 108.203 33.696L108.131 36.864H79.1866C79.6186 40.272 81.0106 42.984 83.3626 45C85.7626 46.968 88.7866 47.952 92.4346 47.952C95.0746 47.952 97.2106 47.472 98.8426 46.512C100.475 45.504 101.819 44.544 102.875 43.632L106.547 49.032ZM91.0666 22.176C88.2346 22.176 85.7626 22.848 83.6506 24.192C81.5386 25.488 80.1466 27.744 79.4746 30.96H100.643V30.456C100.499 28.824 99.9466 27.384 98.9866 26.136C98.0746 24.888 96.9226 23.928 95.5306 23.256C94.1386 22.536 92.6506 22.176 91.0666 22.176ZM116.262 54V0.719999H123.678V54H116.262ZM138.311 35.064C138.311 37.56 138.863 39.792 139.967 41.76C141.119 43.68 142.607 45.216 144.431 46.368C146.303 47.472 148.295 48.024 150.407 48.024C152.807 48.024 154.895 47.4 156.671 46.152C158.447 44.904 159.887 43.608 160.991 42.264L165.095 47.304C164.183 48.6 162.935 49.824 161.351 50.976C159.767 52.08 157.967 52.992 155.951 53.712C153.935 54.384 151.823 54.72 149.615 54.72C146.159 54.72 143.039 53.856 140.255 52.128C137.471 50.4 135.263 48.048 133.631 45.072C132.047 42.096 131.255 38.76 131.255 35.064C131.255 31.32 132.047 27.984 133.631 25.056C135.263 22.08 137.471 19.728 140.255 18C143.039 16.272 146.159 15.408 149.615 15.408C153.119 15.408 156.239 16.128 158.975 17.568C161.711 18.96 163.751 20.784 165.095 23.04L160.991 28.08C159.887 26.448 158.303 25.056 156.239 23.904C154.223 22.704 152.255 22.104 150.335 22.104C148.079 22.104 146.039 22.68 144.215 23.832C142.391 24.936 140.951 26.472 139.895 28.44C138.839 30.36 138.311 32.568 138.311 35.064ZM208.306 35.064C208.306 38.904 207.442 42.312 205.714 45.288C204.034 48.216 201.73 50.52 198.802 52.2C195.922 53.88 192.682 54.72 189.082 54.72C185.482 54.72 182.218 53.88 179.29 52.2C176.362 50.52 174.034 48.216 172.306 45.288C170.626 42.312 169.786 38.904 169.786 35.064C169.786 31.224 170.626 27.84 172.306 24.912C174.034 21.936 176.362 19.608 179.29 17.928C182.218 16.248 185.482 15.408 189.082 15.408C192.682 15.408 195.922 16.248 198.802 17.928C201.73 19.608 204.034 21.936 205.714 24.912C207.442 27.84 208.306 31.224 208.306 35.064ZM200.746 35.064C200.794 32.52 200.29 30.288 199.234 28.368C198.226 26.4 196.834 24.888 195.058 23.832C193.282 22.728 191.29 22.176 189.082 22.176C186.874 22.176 184.858 22.728 183.034 23.832C181.258 24.888 179.842 26.4 178.786 28.368C177.778 30.288 177.298 32.52 177.346 35.064C177.298 37.56 177.778 39.792 178.786 41.76C179.842 43.68 181.258 45.192 183.034 46.296C184.858 47.4 186.874 47.952 189.082 47.952C191.29 47.952 193.282 47.4 195.058 46.296C196.834 45.192 198.226 43.68 199.234 41.76C200.29 39.792 200.794 37.56 200.746 35.064ZM235.611 15.552C238.731 15.552 241.227 16.272 243.099 17.712C244.971 19.104 246.315 21.024 247.131 23.472C247.803 22.272 248.787 21.072 250.083 19.872C251.379 18.624 252.891 17.592 254.619 16.776C256.347 15.96 258.195 15.552 260.163 15.552C263.427 15.552 265.971 16.272 267.795 17.712C269.619 19.104 270.891 21 271.611 23.4C272.379 25.752 272.763 28.392 272.763 31.32V54H265.275V31.752C265.275 28.968 264.747 26.712 263.691 24.984C262.635 23.256 260.643 22.392 257.715 22.392C254.931 22.392 252.627 23.28 250.803 25.056C249.027 26.784 248.139 28.896 248.139 31.392V54H240.651V31.608C240.651 28.92 240.075 26.712 238.923 24.984C237.771 23.256 235.875 22.392 233.235 22.392C231.411 22.392 229.779 22.8 228.339 23.616C226.899 24.432 225.771 25.512 224.955 26.856C224.139 28.152 223.731 29.616 223.731 31.248V54H216.243V16.2H223.731V22.248C224.883 20.52 226.491 18.984 228.555 17.64C230.667 16.248 233.019 15.552 235.611 15.552ZM315.164 49.032H315.092C313.556 50.52 311.444 51.84 308.756 52.992C306.068 54.144 303.26 54.72 300.332 54.72C296.396 54.72 292.916 53.904 289.892 52.272C286.916 50.592 284.588 48.312 282.908 45.432C281.228 42.504 280.388 39.192 280.388 35.496C280.388 31.272 281.276 27.672 283.052 24.696C284.828 21.672 287.18 19.368 290.108 17.784C293.036 16.152 296.228 15.336 299.684 15.336C302.852 15.336 305.732 16.128 308.324 17.712C310.916 19.248 312.98 21.384 314.516 24.12C316.052 26.856 316.82 30.048 316.82 33.696L316.748 36.864H287.804C288.236 40.272 289.628 42.984 291.98 45C294.38 46.968 297.404 47.952 301.052 47.952C303.692 47.952 305.828 47.472 307.46 46.512C309.092 45.504 310.436 44.544 311.492 43.632L315.164 49.032ZM299.684 22.176C296.852 22.176 294.38 22.848 292.268 24.192C290.156 25.488 288.764 27.744 288.092 30.96H309.26V30.456C309.116 28.824 308.564 27.384 307.604 26.136C306.692 24.888 305.54 23.928 304.148 23.256C302.756 22.536 301.268 22.176 299.684 22.176ZM357.155 54H349.739V23.4H341.891V16.2H349.739V6.552H357.155V16.2H365.939V23.4H357.155V54ZM408.556 35.064C408.556 38.904 407.692 42.312 405.964 45.288C404.284 48.216 401.98 50.52 399.052 52.2C396.172 53.88 392.932 54.72 389.332 54.72C385.732 54.72 382.468 53.88 379.54 52.2C376.612 50.52 374.284 48.216 372.556 45.288C370.876 42.312 370.036 38.904 370.036 35.064C370.036 31.224 370.876 27.84 372.556 24.912C374.284 21.936 376.612 19.608 379.54 17.928C382.468 16.248 385.732 15.408 389.332 15.408C392.932 15.408 396.172 16.248 399.052 17.928C401.98 19.608 404.284 21.936 405.964 24.912C407.692 27.84 408.556 31.224 408.556 35.064ZM400.996 35.064C401.044 32.52 400.54 30.288 399.484 28.368C398.476 26.4 397.084 24.888 395.308 23.832C393.532 22.728 391.54 22.176 389.332 22.176C387.124 22.176 385.108 22.728 383.284 23.832C381.508 24.888 380.092 26.4 379.036 28.368C378.028 30.288 377.548 32.52 377.596 35.064C377.548 37.56 378.028 39.792 379.036 41.76C380.092 43.68 381.508 45.192 383.284 46.296C385.108 47.4 387.124 47.952 389.332 47.952C391.54 47.952 393.532 47.4 395.308 46.296C397.084 45.192 398.476 43.68 399.484 41.76C400.54 39.792 401.044 37.56 400.996 35.064ZM7.928 128.808C9.896 131.64 11.936 133.848 14.048 135.432C16.208 136.968 18.992 137.736 22.4 137.736C24.032 137.736 25.592 137.472 27.08 136.944C28.568 136.416 29.792 135.648 30.752 134.64C31.712 133.632 32.192 132.432 32.192 131.04C32.192 128.64 31.16 126.768 29.096 125.424C27.08 124.08 24.224 123.048 20.528 122.328C15.824 121.368 12.08 119.712 9.296 117.36C6.512 114.96 5.12 111.504 5.12 106.992C5.12 104.112 5.912 101.616 7.496 99.504C9.128 97.392 11.264 95.76 13.904 94.608C16.544 93.456 19.4 92.88 22.472 92.88C26.456 92.88 29.888 93.648 32.768 95.184C35.648 96.72 37.904 98.904 39.536 101.736L34.064 107.136C32.768 104.976 31.136 103.224 29.168 101.88C27.2 100.536 24.896 99.864 22.256 99.864C19.616 99.864 17.384 100.488 15.56 101.736C13.784 102.936 12.896 104.616 12.896 106.776C12.896 109.224 13.832 111.024 15.704 112.176C17.624 113.28 20.144 114.168 23.264 114.84C26.096 115.416 28.784 116.304 31.328 117.504C33.872 118.704 35.936 120.264 37.52 122.184C39.152 124.056 39.968 126.336 39.968 129.024C39.968 133.824 38.336 137.64 35.072 140.472C31.808 143.304 27.32 144.72 21.608 144.72C17.72 144.72 14.168 143.952 10.952 142.416C7.784 140.88 5 138.384 2.6 134.928L7.928 128.808ZM61.2097 144H53.7937V113.4H45.9457V106.2H53.7937V96.552H61.2097V106.2H69.9937V113.4H61.2097V144ZM111.603 106.2V144H104.115V138.168C102.963 139.752 101.259 141.24 99.0029 142.632C96.7469 144.024 94.1309 144.72 91.1549 144.72C87.9869 144.72 85.0829 143.88 82.4429 142.2C79.8509 140.52 77.7869 138.192 76.2509 135.216C74.7149 132.24 73.9469 128.832 73.9469 124.992C73.9469 121.152 74.7389 117.768 76.3229 114.84C77.9069 111.864 80.0909 109.56 82.8749 107.928C85.6589 106.248 88.8269 105.408 92.3789 105.408C95.0189 105.408 97.3229 105.984 99.2909 107.136C101.307 108.288 102.915 109.632 104.115 111.168V106.2H111.603ZM92.8829 137.88C95.1869 137.88 97.2029 137.328 98.9309 136.224C100.659 135.072 102.003 133.536 102.963 131.616C103.923 129.648 104.403 127.44 104.403 124.992C104.403 122.592 103.923 120.432 102.963 118.512C102.003 116.592 100.659 115.08 98.9309 113.976C97.2029 112.824 95.1869 112.248 92.8829 112.248C90.6749 112.248 88.7069 112.8 86.9789 113.904C85.2509 115.008 83.9069 116.52 82.9469 118.44C81.9869 120.36 81.5069 122.544 81.5069 124.992C81.5069 127.44 81.9869 129.648 82.9469 131.616C83.9069 133.536 85.2509 135.072 86.9789 136.224C88.7069 137.328 90.6749 137.88 92.8829 137.88ZM126.709 125.064C126.709 127.56 127.261 129.792 128.365 131.76C129.517 133.68 131.005 135.216 132.829 136.368C134.701 137.472 136.693 138.024 138.805 138.024C141.205 138.024 143.293 137.4 145.069 136.152C146.845 134.904 148.285 133.608 149.389 132.264L153.493 137.304C152.581 138.6 151.333 139.824 149.749 140.976C148.165 142.08 146.365 142.992 144.349 143.712C142.333 144.384 140.221 144.72 138.013 144.72C134.557 144.72 131.437 143.856 128.653 142.128C125.869 140.4 123.661 138.048 122.029 135.072C120.445 132.096 119.653 128.76 119.653 125.064C119.653 121.32 120.445 117.984 122.029 115.056C123.661 112.08 125.869 109.728 128.653 108C131.437 106.272 134.557 105.408 138.013 105.408C141.517 105.408 144.637 106.128 147.373 107.568C150.109 108.96 152.149 110.784 153.493 113.04L149.389 118.08C148.285 116.448 146.701 115.056 144.637 113.904C142.621 112.704 140.653 112.104 138.733 112.104C136.477 112.104 134.437 112.68 132.613 113.832C130.789 114.936 129.349 116.472 128.293 118.44C127.237 120.36 126.709 122.568 126.709 125.064ZM160.489 144V90.72H167.905V123.12L184.969 106.2H194.977L177.265 122.832L195.481 144H185.977L172.009 127.728L167.905 131.616V144H160.489ZM204.435 144.792C202.755 144.792 201.507 144.312 200.691 143.352C199.875 142.344 199.467 141.024 199.467 139.392C199.467 138 199.875 136.752 200.691 135.648C201.507 134.544 202.755 133.992 204.435 133.992C206.115 133.992 207.363 134.496 208.179 135.504C208.995 136.464 209.403 137.76 209.403 139.392C209.403 140.736 208.995 141.984 208.179 143.136C207.363 144.24 206.115 144.792 204.435 144.792Z" fill="url(#paint0_radial_71_3)"/>
<defs>
<radialGradient id="paint0_radial_71_3" cx="0" cy="0" r="1" gradientUnits="userSpaceOnUse" gradientTransform="translate(239 76.5) rotate(90) scale(94.5 468.253)">
<stop offset="0.380208" stop-color="#9EA7FA"/>
<stop offset="1" stop-color="#8790E0" stop-opacity="0"/>
</radialGradient>
</defs>
</svg>
